<?xml version="1.0" encoding="utf-8"?>
<!-- Generator: Adobe Illustrator 27.9.0, SVG Export Plug-In . SVG Version: 6.00 Build 0)  -->
<svg version="1.1" id="Layer_1" xmlns="http://www.w3.org/2000/svg" xmlns:xlink="http://www.w3.org/1999/xlink" x="0px" y="0px"
	 viewBox="0 0 1116.1 792.6" style="enable-background:new 0 0 1116.1 792.6;" xml:space="preserve">
<style type="text/css">
	.st0{fill:#F9E3D6;}
	.st1{fill:#ED6A65;}
	.st2{fill:#E73232;}
</style>
<path class="st0" d="M1117.1,28.4C919.6-14.8,668.9,56.6,576.8,188.1c-93.3,133.2-76.9,302.5-247.9,446
	C179.5,759.5,14.9,790.2,14.9,790.2s435.4,2.2,1104,2.4L1117.1,28.4L1117.1,28.4z"/>
<path class="st1" d="M1121.1,182.4c-324.7-55.9-395.2,13.7-458.2,91.2C561,399,590.2,541.1,446.5,664.9
	C306.1,785.7,125.8,788.5,125.8,788.5s143.4,4.5,993,4.1L1121.1,182.4z"/>
<path class="st2" d="M1120.7,354c-190.6-18.1-274,30.3-318.5,78.6c-68.4,74.3-40,153.2-121.4,243.6
	c-95.5,106.1-230.6,116.2-230.6,116.2s156.3-5.8,670.3-0.9c5.1-23,2.2-48.4,2.1-73.6C1122.3,581,1117.9,458.5,1120.7,354L1120.7,354
	z"/>
</svg>
