<svg width="25" height="25" viewBox="0 0 25 25" fill="none" xmlns="http://www.w3.org/2000/svg">
<path d="M19.8717 0.0342522C19.144 0.146536 18.3577 0.727474 17.9962 1.41581C17.7667 1.8503 17.6739 2.23108 17.6739 2.73391C17.6739 3.33926 17.8253 3.80792 18.1525 4.2424C18.2356 4.35468 18.26 4.41815 18.2209 4.43279C18.0353 4.49137 17.3809 4.97956 17.0732 5.28223C16.5115 5.83876 16.1794 6.38065 15.9156 7.16663C15.7496 7.67434 15.6714 8.3041 15.6714 9.19747V9.85652L15.354 9.61731C15.1781 9.4855 14.9388 9.31952 14.8167 9.25117C14.6946 9.17795 14.5969 9.1096 14.5969 9.09495C14.5969 9.08519 14.6507 9.0022 14.7142 8.91921C15.1146 8.3822 15.2758 7.58646 15.1293 6.87371C15.1 6.73214 14.9877 6.42947 14.8802 6.20979C14.4406 5.28712 13.5322 4.71594 12.4968 4.71594C11.4614 4.71594 10.5529 5.28712 10.1085 6.20979C9.86915 6.71261 9.79101 7.10804 9.8252 7.6304C9.8545 8.08929 9.98149 8.47496 10.2306 8.84598C10.3234 8.98267 10.3917 9.09984 10.3869 9.1096C10.3771 9.11448 10.2062 9.23165 10.001 9.36346C8.94118 10.0567 8.19392 11.1307 7.94972 12.3267C7.88134 12.6636 7.85692 12.9809 7.85692 13.679V14.5968L7.50527 14.3234C7.3099 14.1721 7.06082 14.0061 6.95337 13.9524C6.84592 13.8987 6.75312 13.845 6.74335 13.8401C6.73847 13.8352 6.80684 13.7181 6.89964 13.5814C7.18292 13.1566 7.28548 12.8296 7.3099 12.2486C7.32455 11.8532 7.3099 11.6579 7.24641 11.4431C6.88987 10.208 5.87887 9.42204 4.64809 9.42204C3.90571 9.42204 3.30008 9.67589 2.7726 10.208C1.87882 11.1014 1.70299 12.5415 2.36234 13.5228C2.45514 13.6644 2.53328 13.7913 2.53328 13.8108C2.5284 13.8255 2.3428 13.9622 2.11325 14.1086C1.39041 14.5675 0.735946 15.3388 0.398945 16.115C0.115669 16.7692 0.03264 17.1695 0.00821968 18.0775C-0.0210847 18.9856 0.0228719 19.3419 0.223119 19.7618C0.398945 20.1377 0.858048 20.6063 1.239 20.8065L1.55647 20.9676V22.6714C1.55647 24.2775 1.56135 24.3898 1.65415 24.5802C1.71764 24.712 1.82021 24.8194 1.94231 24.8877L2.13767 25L4.70181 24.9854C7.21711 24.9707 7.26595 24.9707 7.4027 24.8682C7.47596 24.8096 7.58341 24.6924 7.63714 24.5997C7.72993 24.4435 7.73482 24.3312 7.74947 22.6958L7.76412 20.9627L8.01809 20.8358C8.72628 20.4892 9.21957 19.752 9.3026 18.9123C9.38563 18.102 9.41982 18.8342 9.41982 21.5046C9.41982 24.7022 9.41494 24.6339 9.71775 24.8535L9.88381 24.9707H12.4968H15.1098L15.2758 24.8535C15.5786 24.6339 15.5737 24.7022 15.5737 21.5192V18.6243L15.8912 18.4583C16.6385 18.0727 17.1366 17.2867 17.1366 16.4958C17.1366 16.3396 17.1562 16.2078 17.1855 16.2078C17.2148 16.2078 17.2392 17.6821 17.2441 20.3232C17.2588 24.3312 17.2588 24.4386 17.3564 24.5997C17.4102 24.6924 17.5176 24.8096 17.5909 24.8682C17.7276 24.9707 17.7765 24.9707 20.2918 24.9854L22.8559 25L23.0513 24.8877C23.1734 24.8194 23.2759 24.712 23.3394 24.5802C23.4371 24.3849 23.4371 24.2775 23.4371 20.3183V16.2615L23.7204 16.1248C24.0671 15.9588 24.5555 15.4853 24.7265 15.1436C25 14.6066 25 14.5919 25 11.2723C25 7.90867 24.9902 7.75245 24.707 6.96647C24.3407 5.96569 23.5641 5.06743 22.5335 4.46208C22.4505 4.41327 22.4554 4.39374 22.6215 4.12036C23.1343 3.29044 23.1685 2.36289 22.7191 1.46463C22.1965 0.429682 21.0439 -0.151257 19.8717 0.0342522ZM20.8632 1.58668C21.0976 1.69896 21.3125 1.90888 21.4395 2.15297C21.7277 2.72903 21.4981 3.47107 20.9316 3.77374C20.7704 3.85674 20.6434 3.88115 20.3308 3.88115C19.9792 3.88115 19.9108 3.8665 19.6959 3.73469C19.354 3.51989 19.1733 3.20745 19.1489 2.78273C19.1245 2.37754 19.188 2.17738 19.4126 1.90888C19.5836 1.71361 19.7692 1.58668 20.0183 1.50857C20.2087 1.4451 20.6581 1.48416 20.8632 1.58668ZM21.0683 5.49215C21.9377 5.67278 22.7924 6.32207 23.1587 7.07875C23.5152 7.81591 23.5055 7.6841 23.525 11.1307L23.5397 14.2307L23.4224 14.4503C23.2906 14.7042 23.0122 14.8897 22.7582 14.8897C22.4945 14.8897 22.2014 15.0557 22.0793 15.2754L21.9719 15.4658V19.4982V23.5306H20.3357H18.6996V19.464C18.6996 15.4755 18.6996 15.3974 18.6019 15.2412C18.4895 15.0557 18.1721 14.8946 17.9279 14.8897C17.6006 14.8897 17.2832 14.6114 17.1855 14.2502C17.1464 14.1135 17.1366 13.1176 17.1464 11.0672C17.166 8.13323 17.1708 8.07465 17.2783 7.71339C17.5518 6.81025 18.089 6.14632 18.851 5.77042C19.0805 5.65325 19.4126 5.53121 19.5836 5.49215C19.9987 5.40428 20.6434 5.40428 21.0683 5.49215ZM12.9998 6.28301C13.2343 6.37577 13.5859 6.76632 13.6592 7.02017C13.8399 7.61087 13.5908 8.21134 13.0585 8.47008C12.2282 8.88015 11.2758 8.31386 11.2758 7.40584C11.2758 7.10316 11.3734 6.84931 11.5835 6.6101C11.9644 6.18049 12.4479 6.06821 12.9998 6.28301ZM13.3515 10.2275C14.2111 10.4521 14.9584 11.0526 15.3198 11.8141C15.6519 12.5171 15.6714 12.6782 15.6714 14.8067C15.6714 16.6765 15.6714 16.6813 15.5591 16.8473C15.4028 17.0816 15.1781 17.2135 14.8949 17.2476C14.5823 17.2867 14.3918 17.3843 14.2453 17.5845L14.1329 17.7456L14.1183 20.6356L14.1036 23.5306H12.4968H10.8899L10.8753 20.6356L10.8606 17.7456L10.7483 17.5845C10.6018 17.3843 10.4113 17.2867 10.0987 17.2476C9.81543 17.2135 9.59076 17.0816 9.43447 16.8473C9.32214 16.6813 9.32214 16.6765 9.32214 14.7969C9.32214 12.6587 9.34656 12.4781 9.66402 11.8288C10.0889 10.9696 10.8655 10.3838 11.857 10.1738C12.2477 10.0957 12.9363 10.1153 13.3515 10.2275ZM5.03393 10.9452C5.28301 11.0184 5.64932 11.3455 5.76165 11.5945C5.87399 11.8385 5.88375 12.3365 5.77631 12.5855C5.68351 12.8149 5.44419 13.0639 5.1951 13.1957C5.05346 13.2738 4.91182 13.2982 4.65785 13.3031C4.03758 13.3031 3.57847 12.9467 3.46126 12.3658C3.26589 11.4285 4.10595 10.6669 5.03393 10.9452ZM5.51257 14.919C6.42589 15.1924 7.14873 15.8173 7.53945 16.6716C7.77877 17.1939 7.8325 17.4673 7.8325 18.2826C7.8325 18.9612 7.82273 19.0295 7.72016 19.1955C7.56876 19.4396 7.35386 19.5616 6.97779 19.6202C6.69939 19.6641 6.6359 19.6983 6.47961 19.8643L6.29402 20.0596V21.7975V23.5306H4.65785H3.02169V21.8561C3.02169 20.3622 3.01192 20.167 2.93378 20.0156C2.82144 19.7911 2.59189 19.6446 2.29396 19.6104C1.9765 19.5714 1.7909 19.4738 1.61996 19.2492C1.48809 19.0783 1.48321 19.049 1.46856 18.39C1.44902 17.565 1.52717 17.1402 1.80556 16.5691C2.23536 15.6854 3.07053 15.0606 4.10107 14.8409C4.399 14.7774 5.19022 14.8214 5.51257 14.919Z" fill="#F16A64"/>
</svg>
