<svg width="25" height="25" viewBox="0 0 25 25" fill="none" xmlns="http://www.w3.org/2000/svg">
<path d="M11.8072 0.0124969C11.7182 0.0222702 11.4291 0.0564804 11.1677 0.0858021C8.04802 0.45233 5.16191 2.46579 3.99411 5.09991C3.527 6.14573 3.36017 6.93255 3.36017 8.1201C3.35461 9.31254 3.58261 10.2704 4.11089 11.326C4.3945 11.8929 4.3945 11.8978 6.21292 14.3999C7.0415 15.5386 7.69768 16.4867 7.67544 16.5063C7.6532 16.5258 7.38627 16.5747 7.08042 16.6236C5.02844 16.9412 2.92086 17.5912 1.71414 18.29C0.496298 18.9889 -0.148768 20.0005 0.0291809 20.9241C0.218252 21.8869 1.108 22.7324 2.63169 23.3872C6.60218 25.1026 13.8647 25.5082 19.3311 24.3206C21.7001 23.8075 23.5574 22.9865 24.3582 22.1068C25.4426 20.9046 25.1367 19.502 23.563 18.4611C22.423 17.7036 20.1597 16.9656 17.9242 16.6236C17.6184 16.5747 17.3514 16.5258 17.3292 16.5063C17.3069 16.4867 18.0132 15.4751 18.9029 14.2533C19.7927 13.0316 20.6268 11.8294 20.7603 11.5899C21.0939 10.9741 21.3219 10.3828 21.4943 9.6644C21.6222 9.12683 21.6445 8.93135 21.6445 8.16897C21.6445 7.68515 21.6111 7.11337 21.5722 6.89834C20.9493 3.41388 17.9242 0.701569 14.0038 0.10535C13.5366 0.0320454 12.1242 -0.0265999 11.8072 0.0124969ZM13.9871 1.59101C16.8343 2.10415 19.0642 4.00032 19.7816 6.50738C20.2097 8.02236 19.9929 9.71327 19.1921 11.0621C18.9307 11.497 12.5579 20.3133 12.5023 20.3133C12.4856 20.3133 11.2845 18.6712 9.83308 16.6626C8.38168 14.659 6.90803 12.6308 6.56326 12.1568C6.21848 11.6828 5.8459 11.1305 5.73468 10.9301C4.19987 8.10544 5.15078 4.68451 7.99241 2.79811C9.09347 2.06994 10.328 1.63988 11.7794 1.47861C12.2187 1.42974 13.4365 1.49327 13.9871 1.59101ZM10.3058 20.0445C11.4346 21.5937 11.9184 22.2241 12.0519 22.3023C12.3077 22.4538 12.6969 22.4538 12.9528 22.3023C13.0862 22.2241 13.5756 21.5937 14.6989 20.0445L16.2615 17.8942L16.4784 17.9088C16.6007 17.9137 17.0011 17.9675 17.3681 18.0212C19.9706 18.4073 21.9169 19.0622 22.8512 19.8734C23.5018 20.4403 23.5018 20.7824 22.8567 21.3395C21.6445 22.3756 18.8696 23.1282 15.0881 23.4508C14.1372 23.5289 10.8007 23.5289 9.88868 23.4508C7.85895 23.2699 6.33526 23.0158 4.96727 22.6297C3.64378 22.2583 2.73735 21.8429 2.14789 21.3395C1.54175 20.8215 1.51395 20.4745 2.03667 19.9663C2.78183 19.2381 4.54464 18.5637 6.75233 18.1679C7.66432 18.0017 8.53738 17.8746 8.66528 17.8893C8.70977 17.8893 9.44937 18.8618 10.3058 20.0445Z" fill="#F16A64"/>
<path d="M11.974 4.45971C11.9128 4.46948 11.7237 4.50369 11.5569 4.53301C10.3502 4.74804 9.17127 5.62771 8.6541 6.70286C8.42611 7.1769 8.35938 7.49456 8.35938 8.09567C8.35938 8.69677 8.42611 9.01443 8.6541 9.48847C9.17127 10.5587 10.2668 11.3798 11.5569 11.6681C11.9517 11.7561 13.0528 11.7561 13.4476 11.6681C14.7377 11.3798 15.8332 10.5587 16.3504 9.48847C16.5784 9.01443 16.6451 8.69677 16.6451 8.09567C16.6451 7.77801 16.6118 7.41637 16.5673 7.26487C16.1891 5.95026 15.0269 4.90932 13.531 4.54279C13.2474 4.47437 12.1797 4.41572 11.974 4.45971ZM12.9527 5.94537C14.2595 6.16529 15.1715 7.28931 14.9602 8.41821C14.7822 9.37607 13.9592 10.0994 12.8693 10.2557C11.2622 10.4903 9.77741 9.18548 10.0443 7.77312C10.2779 6.54159 11.5847 5.72056 12.9527 5.94537Z" fill="#F16A64"/>
</svg>
