<svg width="55" height="74" viewBox="0 0 55 74" fill="none" xmlns="http://www.w3.org/2000/svg">
<path d="M19.8904 47.1685C21.047 45.1654 23.6084 44.479 25.6115 45.6356C27.6146 46.7921 28.3009 49.3535 27.1444 51.3566L18.6044 66.1483C16.896 69.1075 12.5539 68.8856 11.1559 65.7678C10.6058 64.541 10.6782 63.1246 11.3504 61.9603L19.8904 47.1685Z" fill="#AA75CB"/>
<path d="M19.8904 47.1685C21.047 45.1654 20.3606 42.604 18.3575 41.4475C16.3544 40.2909 13.793 40.9773 12.6365 42.9804L4.09644 57.7722C2.38799 60.7313 4.75113 64.3807 8.15025 64.0325C9.48776 63.8955 10.6782 63.1246 11.3504 61.9603L19.8904 47.1685Z" fill="#73488D"/>
<path d="M34.4274 47.1685C33.2709 45.1654 30.7095 44.479 28.7064 45.6356C26.7032 46.7921 26.0169 49.3535 27.1734 51.3566L35.7135 66.1483C37.4219 69.1075 41.764 68.8856 43.162 65.7678C43.7121 64.541 43.6397 63.1246 42.9674 61.9603L34.4274 47.1685Z" fill="#73488D"/>
<path d="M34.4274 47.1685C33.2709 45.1654 33.9572 42.604 35.9604 41.4475C37.9635 40.2909 40.5249 40.9773 41.6814 42.9804L50.2214 57.7722C51.9299 60.7313 49.5667 64.3807 46.1676 64.0325C44.8301 63.8955 43.6397 63.1246 42.9674 61.9603L34.4274 47.1685Z" fill="#AA75CB"/>
<circle cx="27.1473" cy="25.9741" r="25.4741" fill="#DC9E42" stroke="#774700"/>
<circle cx="27.1472" cy="25.974" r="19.4945" fill="#734C12"/>
<mask id="mask0_104_230" style="mask-type:alpha" maskUnits="userSpaceOnUse" x="8" y="8" width="40" height="40">
<circle cx="28.188" cy="28.0553" r="19.5399" fill="#C28B37"/>
</mask>
<g mask="url(#mask0_104_230)">
<circle cx="27.1474" cy="25.9741" r="19.5399" fill="#A36D1D"/>
</g>
<path d="M23.9274 19.0311C25.2975 16.2909 29.2078 16.2909 30.5779 19.0311L30.6343 19.1439C31.1549 20.1852 32.1616 20.8974 33.3168 21.0418C36.1012 21.3899 37.3512 24.72 35.4836 26.8143L35.2749 27.0483C34.538 27.8746 34.2164 28.991 34.4009 30.0827L34.4307 30.2593C34.951 33.3393 31.7516 35.7052 28.9578 34.3083C27.8847 33.7718 26.6211 33.7715 25.548 34.3081C22.7559 35.7041 19.5614 33.3357 20.0859 30.2584L20.1152 30.0868C20.3016 28.9929 19.9794 27.8736 19.2398 27.0463L19.0291 26.8106C17.1598 24.7195 18.4075 21.3894 21.1906 21.0416C22.3445 20.8973 23.35 20.1859 23.87 19.1458L23.9274 19.0311Z" fill="url(#paint0_linear_104_230)"/>
<defs>
<linearGradient id="paint0_linear_104_230" x1="27.2526" y1="12.3806" x2="27.2526" y2="37.6708" gradientUnits="userSpaceOnUse">
<stop stop-color="#FCFF80"/>
<stop offset="0.401042" stop-color="#FDE870"/>
<stop offset="1" stop-color="#FFC759"/>
</linearGradient>
</defs>
</svg>
