<svg width="46" height="43" viewBox="0 0 46 43" fill="none" xmlns="http://www.w3.org/2000/svg">
<path d="M11.5937 0.656227C5.26091 1.82072 0.322425 7.55219 0.0165803 14.0751C-0.127346 17.1865 0.772196 20.0977 2.76918 22.9544C3.18297 23.5366 5.75566 26.3296 11.5847 32.4795C16.1094 37.2649 19.9774 41.3224 20.1753 41.4861C21.6416 42.7234 23.8724 42.8417 25.4826 41.7682C26.0133 41.4134 42.2591 24.2371 42.9427 23.3092C44.4 21.335 45.3985 19.1152 45.8303 16.8499C46.0731 15.5853 46.0551 13.129 45.7943 11.919C44.1571 4.33165 36.7539 -0.717506 29.4496 0.756302C27.3177 1.19299 25.1318 2.23011 23.4227 3.63113L22.9819 3.99504L22.2982 3.47647C20.5531 2.13004 18.6551 1.22937 16.5502 0.738106C15.3808 0.456081 12.853 0.419689 11.5937 0.656227ZM15.4257 3.34001C17.5936 3.72211 19.7435 4.79562 21.5966 6.41499C22.8649 7.5158 23.2068 7.5067 24.5291 6.28762C26.0853 4.85021 27.9743 3.84948 29.9443 3.42189C30.9878 3.19445 32.9488 3.19445 33.9923 3.42189C38.6429 4.40443 42.2861 8.05256 43.1766 12.6195C43.3565 13.5384 43.3385 15.6217 43.1316 16.5588C42.7358 18.4329 41.9352 20.1523 40.6939 21.7717C39.9113 22.8179 24.2233 39.3482 23.8095 39.5756C23.3417 39.8304 22.685 39.8395 22.2263 39.6029C21.8215 39.3937 5.81863 22.5177 5.07201 21.5079C2.04955 17.4503 1.90562 12.4831 4.67621 8.33458C6.43032 5.69628 9.25488 3.78579 12.1244 3.29453C12.844 3.17625 14.5982 3.19445 15.4257 3.34001Z" fill="#ED2E2F"/>
</svg>
