<svg width="25" height="18" viewBox="0 0 25 18" fill="none" xmlns="http://www.w3.org/2000/svg">
<path d="M3.33497 0.787109C1.85059 1.05566 0.590828 2.19336 0.170907 3.64355C-0.541984 6.11914 1.21583 8.62891 3.7793 8.79004L4.2627 8.81934L4.35059 9.19043C4.68263 10.5918 5.76661 11.71 7.20704 12.125C7.53419 12.2227 7.7002 12.2373 8.30079 12.2324C8.95509 12.2324 9.04298 12.2178 9.45802 12.0811C10.5713 11.71 11.3672 11.0215 11.8652 9.99121C11.9971 9.72266 12.1387 9.3418 12.1875 9.15137L12.2705 8.79492H12.4707H12.6758L12.7393 9.09766C12.7734 9.26855 12.8662 9.56641 12.9492 9.76172C13.4229 10.9043 14.4092 11.7783 15.6104 12.125C16.1572 12.2861 17.1924 12.2861 17.7393 12.125C19.1553 11.7197 20.2637 10.5723 20.5859 9.18066L20.669 8.80957L21.2109 8.78027C24.0527 8.63379 25.8301 5.60156 24.585 3.00879C23.6279 1.01172 21.1572 0.166992 19.1699 1.1582C18.0957 1.69531 17.3193 2.67676 17.041 3.83887L16.958 4.18066L16.7334 4.19531C16.5186 4.20996 16.5039 4.2002 16.4795 4.07324C16.0449 2.07129 14.4531 0.738281 12.5 0.738281C10.5469 0.738281 8.95509 2.07129 8.52052 4.07324C8.4961 4.2002 8.48145 4.20996 8.26661 4.19531L8.04688 4.18066L7.95411 3.8291C7.5879 2.38379 6.54298 1.29004 5.12208 0.884766C4.70704 0.762695 3.75489 0.713867 3.33497 0.787109ZM4.71192 1.6416C4.90235 1.68066 5.23927 1.80273 5.46876 1.91504C6.03516 2.19336 6.63087 2.78418 6.89942 3.33594C7.04591 3.63867 7.25587 4.30273 7.21192 4.32715C7.20704 4.33203 7.06544 4.38574 6.89942 4.44434C6.10841 4.72266 5.4004 5.2793 4.89259 6.02148C4.57032 6.49512 4.33106 7.12012 4.26759 7.68164L4.23341 7.96484H3.93067C3.18848 7.96484 2.3877 7.61816 1.80177 7.03711C1.14747 6.3877 0.8545 5.68945 0.8545 4.7666C0.8545 4.30273 0.874032 4.1709 0.996102 3.79492C1.51368 2.21777 3.09571 1.30469 4.71192 1.6416ZM13.501 1.73926C14.4482 2.05664 15.166 2.75488 15.5029 3.68262C15.5664 3.85352 15.625 4.06348 15.6348 4.15137C15.6494 4.30762 15.6397 4.31738 15.4053 4.40039C14.5361 4.69824 13.7744 5.30371 13.2666 6.08984C12.9883 6.5293 12.8125 6.96875 12.71 7.52051L12.627 7.96484H12.4658C12.3389 7.96484 12.3047 7.94043 12.2852 7.85254C12.1533 7.16406 12.0801 6.90527 11.9141 6.55859C11.5918 5.88965 11.2549 5.4502 10.7373 5.05469C10.4199 4.81055 9.81446 4.4834 9.52637 4.39551C9.33106 4.33691 9.32618 4.33203 9.35548 4.16113C9.54102 3.15527 10.332 2.18848 11.2891 1.80762C11.9873 1.5293 12.8076 1.50488 13.501 1.73926ZM21.9629 1.72949C22.9443 2.06641 23.6816 2.81348 24.0039 3.79492C24.126 4.1709 24.1455 4.30273 24.1455 4.7666C24.1455 5.68945 23.8525 6.3877 23.1982 7.03711C22.6025 7.62793 21.8164 7.96484 21.04 7.96484H20.708L20.6787 7.73047C20.4785 6.25586 19.4824 4.99609 18.1055 4.46875C17.7832 4.34668 17.7783 4.3418 17.8076 4.19043C17.9248 3.55078 18.208 3.0332 18.7207 2.51562C19.165 2.07129 19.6973 1.76855 20.2637 1.6416C20.7373 1.53418 21.5088 1.57324 21.9629 1.72949ZM8.4961 5.19629C8.4961 5.45996 8.67677 6.10449 8.85743 6.48535C9.31153 7.4375 10.1856 8.2334 11.1719 8.58008C11.3086 8.62891 11.4258 8.69238 11.4258 8.71191C11.4258 8.87305 11.2402 9.41504 11.0791 9.72266C10.6982 10.4502 10.0391 11.0117 9.2627 11.2705C8.91114 11.3877 8.78907 11.4023 8.25196 11.4023C7.71485 11.4023 7.59766 11.3877 7.25587 11.2705C6.88966 11.1387 6.3672 10.8359 6.09864 10.5918C5.84962 10.3623 5.52247 9.91797 5.37598 9.61035C5.25391 9.35645 5.05372 8.69238 5.09278 8.67285C5.09766 8.66797 5.23927 8.61426 5.40528 8.55566C6.40138 8.2041 7.28028 7.38867 7.71973 6.42188C7.8711 6.09473 8.05665 5.40137 8.05665 5.16699C8.05665 5.04492 8.0713 5.03516 8.27637 5.03516C8.49122 5.03516 8.4961 5.03516 8.4961 5.19629ZM16.9434 5.16211C16.9434 5.57227 17.2803 6.5293 17.5879 6.97363C18.0762 7.69141 18.7647 8.24805 19.5068 8.52637C19.8584 8.6582 19.8731 8.71191 19.7266 9.17578C19.5606 9.69824 19.3066 10.1035 18.8965 10.5088C17.915 11.4805 16.4941 11.7051 15.2344 11.085C14.4873 10.7139 13.8379 9.94238 13.6035 9.1416C13.4863 8.73633 13.4961 8.66309 13.6865 8.62402C14.0869 8.53613 14.7803 8.13086 15.2734 7.70117C15.5274 7.47656 15.9522 6.88574 16.1426 6.48535C16.3232 6.10449 16.5039 5.45996 16.5039 5.19629C16.5039 5.03516 16.5088 5.03516 16.7236 5.03516C16.9287 5.03516 16.9434 5.04492 16.9434 5.16211ZM15.6055 5.5332C15.4297 6.21191 15.0098 6.87109 14.4922 7.27148C14.2529 7.45703 13.6084 7.81836 13.5156 7.81836C13.4473 7.81836 13.6377 7.18359 13.8232 6.80273C14.0576 6.31934 14.4678 5.86035 14.9365 5.55762C15.2344 5.35742 15.6299 5.17188 15.6641 5.20605C15.6738 5.21582 15.6445 5.3623 15.6055 5.5332ZM7.17286 5.43555C6.96778 6.3584 6.32325 7.19824 5.48829 7.62305C5.08302 7.82812 5.07325 7.82324 5.15626 7.4668C5.35645 6.6123 6.01563 5.78711 6.8213 5.37695C7.20216 5.18164 7.22657 5.18652 7.17286 5.43555ZM9.86329 5.46484C10.3174 5.71387 10.8203 6.24121 11.0742 6.72461C11.2647 7.10059 11.4649 7.70117 11.4111 7.75488C11.3672 7.79883 10.8447 7.52051 10.542 7.2959C9.95118 6.85156 9.53126 6.16797 9.35059 5.3623C9.32618 5.23535 9.33106 5.22559 9.4336 5.25488C9.49708 5.27441 9.68751 5.36719 9.86329 5.46484ZM18.1641 5.40137C18.9697 5.82617 19.668 6.74414 19.7998 7.56445L19.834 7.77441L19.6436 7.68652C18.9356 7.35938 18.3106 6.72461 18.0127 6.02637C17.9053 5.77734 17.7637 5.23047 17.8076 5.23047C17.8223 5.23047 17.9785 5.30859 18.1641 5.40137Z" fill="#F16A64"/>
<path d="M20.085 16.755V13.915L20.27 14.055L19.58 14.42L19.435 13.95L20.37 13.45H20.63V16.755H20.085ZM19.53 17V16.48H21.2V17H19.53ZM22.244 15.03C22.104 15.03 21.978 15.007 21.866 14.961C21.756 14.913 21.666 14.845 21.596 14.757L21.836 14.55C21.896 14.618 21.963 14.667 22.037 14.697C22.111 14.727 22.189 14.742 22.271 14.742C22.305 14.742 22.335 14.738 22.361 14.73C22.389 14.722 22.413 14.71 22.433 14.694C22.453 14.678 22.468 14.66 22.478 14.64C22.49 14.618 22.496 14.594 22.496 14.568C22.496 14.52 22.478 14.482 22.442 14.454C22.422 14.44 22.39 14.425 22.346 14.409C22.304 14.393 22.249 14.377 22.181 14.361C22.073 14.333 21.983 14.301 21.911 14.265C21.839 14.227 21.783 14.185 21.743 14.139C21.709 14.101 21.683 14.058 21.665 14.01C21.649 13.962 21.641 13.91 21.641 13.854C21.641 13.784 21.656 13.721 21.686 13.665C21.718 13.607 21.761 13.557 21.815 13.515C21.869 13.473 21.932 13.441 22.004 13.419C22.076 13.397 22.151 13.386 22.229 13.386C22.309 13.386 22.386 13.396 22.46 13.416C22.536 13.436 22.606 13.465 22.67 13.503C22.736 13.539 22.792 13.583 22.838 13.635L22.634 13.86C22.596 13.824 22.554 13.792 22.508 13.764C22.464 13.736 22.419 13.714 22.373 13.698C22.327 13.68 22.284 13.671 22.244 13.671C22.206 13.671 22.172 13.675 22.142 13.683C22.112 13.689 22.087 13.699 22.067 13.713C22.047 13.727 22.031 13.745 22.019 13.767C22.009 13.787 22.004 13.811 22.004 13.839C22.006 13.863 22.012 13.886 22.022 13.908C22.034 13.928 22.05 13.945 22.07 13.959C22.092 13.973 22.125 13.989 22.169 14.007C22.213 14.025 22.27 14.042 22.34 14.058C22.438 14.084 22.52 14.113 22.586 14.145C22.652 14.177 22.704 14.214 22.742 14.256C22.78 14.292 22.807 14.334 22.823 14.382C22.839 14.43 22.847 14.483 22.847 14.541C22.847 14.635 22.82 14.719 22.766 14.793C22.714 14.867 22.642 14.925 22.55 14.967C22.46 15.009 22.358 15.03 22.244 15.03ZM23.4331 15V13.017H23.8021V15H23.4331ZM23.1211 13.761V13.419H24.1471V13.761H23.1211Z" fill="#F16A64"/>
</svg>
