<svg width="15" height="22" viewBox="0 0 15 22" fill="none" xmlns="http://www.w3.org/2000/svg">
<path d="M3.62427 0.0976558C3.42407 0.151367 3.14087 0.263671 2.9895 0.351562C2.63306 0.551757 2.11548 1.06934 1.91528 1.4209C1.72485 1.75781 1.56372 2.3584 1.56372 2.73437C1.56372 3.11035 1.72485 3.71094 1.91528 4.04785C2.11548 4.39941 2.63306 4.91699 2.98462 5.11719C3.32153 5.30762 3.92212 5.46875 4.2981 5.46875C4.65454 5.46875 5.26001 5.3125 5.58228 5.1416C5.91431 4.96094 6.4856 4.39453 6.68091 4.04785C6.87134 3.71094 7.03247 3.11035 7.03247 2.73437C7.03247 2.3584 6.87134 1.75781 6.68091 1.4209C6.4856 1.07422 5.90942 0.502929 5.58228 0.327148C5.25024 0.151367 4.64478 -4.76837e-07 4.27856 0.00488234C4.11255 0.00488234 3.81958 0.0488276 3.62427 0.0976558ZM4.8938 0.878906C5.20142 0.971679 5.67505 1.32324 5.87524 1.61133C6.09009 1.91895 6.25122 2.40234 6.25122 2.73437C6.25122 3.06641 6.09009 3.5498 5.87524 3.85742C5.67505 4.14551 5.20142 4.50195 4.8938 4.58984C4.06372 4.83887 3.17505 4.52637 2.70142 3.81836C2.43286 3.42285 2.36938 3.19824 2.36938 2.68555C2.37427 2.34375 2.3938 2.22168 2.50122 2.00195C2.77466 1.4209 3.1604 1.06445 3.74634 0.874023C4.05396 0.771484 4.552 0.771484 4.8938 0.878906Z" fill="#F16A64"/>
<path d="M10.2795 0.12207L10.1575 0.239258V10.5469V20.8545L10.2795 20.9717L10.3967 21.0938H12.1106H13.8245L13.9417 20.9717C14.1028 20.8154 14.1028 20.5908 13.9417 20.4346L13.8245 20.3125H12.3792H10.9387V19.8486V19.3848H11.5979C12.2375 19.3848 12.2668 19.3799 12.3792 19.2627C12.5354 19.1113 12.5354 18.9404 12.384 18.7646C12.2668 18.6279 12.262 18.6279 11.6028 18.6133L10.9387 18.5938V18.1641V17.7344L11.6028 17.7148C12.262 17.7002 12.2668 17.7002 12.384 17.5635C12.5256 17.3975 12.5354 17.2412 12.3987 17.0703C12.301 16.9434 12.2961 16.9434 11.6174 16.9434H10.9387V16.4795V16.0156H12.3792H13.8245L13.9417 15.8936C14.1028 15.7373 14.1028 15.5127 13.9417 15.3564L13.8245 15.2344H12.3792H10.9387V14.7705V14.3066H11.5979C12.2375 14.3066 12.2668 14.3018 12.3792 14.1846C12.5354 14.0332 12.5354 13.8623 12.384 13.6865C12.2668 13.5498 12.262 13.5498 11.6028 13.5352L10.9387 13.5156V13.0859V12.6562L11.6028 12.6367C12.262 12.6221 12.2668 12.6221 12.384 12.4854C12.5256 12.3193 12.5354 12.1631 12.3987 11.9922C12.301 11.8652 12.2961 11.8652 11.6174 11.8652H10.9387V11.4014V10.9375H12.3792H13.8245L13.9417 10.8154C14.0198 10.7422 14.0637 10.6396 14.0637 10.5469C14.0637 10.4541 14.0198 10.3516 13.9417 10.2783L13.8245 10.1562H12.3792H10.9387V9.69238V9.22852H11.5979C12.2375 9.22852 12.2668 9.22363 12.3792 9.10645C12.5354 8.95508 12.5354 8.78418 12.384 8.6084C12.2668 8.47168 12.262 8.47168 11.6028 8.45703L10.9387 8.4375V8.00781V7.57812L11.6028 7.55859C12.262 7.54395 12.2668 7.54395 12.384 7.40723C12.5256 7.24121 12.5354 7.08496 12.3987 6.91406C12.301 6.78711 12.2961 6.78711 11.6174 6.78711H10.9387V6.32324V5.85938H12.3792H13.8245L13.9417 5.7373C14.1028 5.58105 14.1028 5.35645 13.9417 5.2002L13.8245 5.07812H12.3792H10.9387V4.61426V4.15039H11.5979C12.2375 4.15039 12.2668 4.14551 12.3792 4.02832C12.5354 3.87695 12.5354 3.70605 12.384 3.53027C12.2668 3.39355 12.262 3.39355 11.6028 3.37891L10.9387 3.35938V2.92969V2.5L11.6028 2.48047C12.262 2.46582 12.2668 2.46582 12.384 2.3291C12.5256 2.16309 12.5354 2.00684 12.3987 1.83594C12.301 1.70898 12.2961 1.70898 11.6174 1.70898H10.9387V1.24512V0.78125H12.3792H13.8245L13.9417 0.65918C14.0198 0.585938 14.0637 0.483398 14.0637 0.390625C14.0637 0.297852 14.0198 0.195312 13.9417 0.12207L13.8245 0H12.1106H10.3967L10.2795 0.12207Z" fill="#F16A64"/>
<path d="M2.17407 6.30863C2.04224 6.33304 1.75415 6.44046 1.53442 6.543C0.792236 6.89945 0.196533 7.67581 0.0549316 8.46683C-0.0183105 8.86234 -0.0183105 13.628 0.0549316 13.8868C0.123291 14.1358 0.445557 14.4776 0.709229 14.5752C0.85083 14.6289 1.02173 14.6534 1.24146 14.6387L1.55884 14.6241L1.57349 17.2852C1.58813 19.8926 1.58813 19.9512 1.69067 20.1709C2.09106 21.0352 3.25806 21.3184 4.08813 20.7471L4.2981 20.6006L4.52271 20.7569C5.3186 21.3037 6.44653 21.0547 6.86157 20.2393L7.00806 19.9512L7.02271 17.2901L7.03735 14.6241L7.35474 14.6387C7.57446 14.6534 7.74536 14.6289 7.88696 14.5752C8.15063 14.4776 8.4729 14.1358 8.54126 13.8868C8.6145 13.628 8.6145 8.86234 8.54126 8.46683C8.35571 7.43167 7.41333 6.48929 6.37817 6.30374C6.01685 6.23538 2.52075 6.24027 2.17407 6.30863ZM6.70044 7.23636C7.14478 7.45609 7.41821 7.73929 7.63306 8.19339L7.78931 8.52054L7.80396 11.0938C7.8186 13.628 7.8186 13.667 7.71606 13.7696C7.58423 13.9014 7.26196 13.9014 7.13013 13.7696C7.03735 13.6768 7.03247 13.6084 7.03247 11.2549V8.83304L6.9104 8.71585C6.83716 8.63773 6.73462 8.59378 6.64185 8.59378C6.54907 8.59378 6.44653 8.63773 6.37329 8.71585L6.25122 8.83304V14.2676C6.25122 19.3457 6.24634 19.7119 6.16333 19.8682C6.02173 20.1514 5.85571 20.2393 5.46997 20.2393C5.08423 20.2393 4.91821 20.1514 4.77661 19.8682C4.6936 19.7168 4.68872 19.458 4.68872 16.6114V13.5205L4.56665 13.4034C4.4104 13.2422 4.18579 13.2422 4.02954 13.4034L3.90747 13.5205V16.6114C3.90747 19.458 3.90259 19.7168 3.81958 19.8682C3.67798 20.1514 3.51196 20.2393 3.12622 20.2393C2.74048 20.2393 2.57446 20.1514 2.43286 19.8682C2.34985 19.7119 2.34497 19.3457 2.34497 14.2676V8.83304L2.2229 8.71585C2.14966 8.63773 2.04712 8.59378 1.95435 8.59378C1.86157 8.59378 1.75903 8.63773 1.68579 8.71585L1.56372 8.83304V11.2549C1.56372 13.6084 1.55884 13.6768 1.46606 13.7696C1.33423 13.9014 1.01196 13.9014 0.880127 13.7696C0.777588 13.667 0.777588 13.628 0.792236 11.0938L0.806885 8.52054L0.963135 8.19339C1.04614 8.01273 1.20728 7.76859 1.3147 7.6514C1.52954 7.41702 1.97388 7.15823 2.27661 7.08499C2.38403 7.06058 3.3313 7.04105 4.40063 7.04593L6.32935 7.0557L6.70044 7.23636Z" fill="#F16A64"/>
</svg>
