<svg width="100" height="47" viewBox="0 0 100 47" fill="none" xmlns="http://www.w3.org/2000/svg">
<path d="M36.3987 3.7671C36.5034 3.85864 36.608 3.95018 36.7158 4.04449C37.7503 4.92331 38.4963 5.09511 39.8327 5.07129C40.0168 5.07266 40.201 5.07403 40.3908 5.07545C41.0051 5.07864 41.6191 5.0736 42.2335 5.06859C42.6751 5.06922 43.1168 5.07037 43.5584 5.07199C44.5084 5.07439 45.4582 5.07315 46.4082 5.06908C47.9122 5.06267 49.4161 5.06448 50.9201 5.0674C53.0305 5.07063 55.141 5.07025 57.2514 5.0666C57.4521 5.06626 57.4521 5.06626 57.6568 5.0659C57.8578 5.06556 57.8578 5.06556 58.0627 5.06521C59.9582 5.06195 61.8537 5.05981 63.7492 5.05904C63.9491 5.05896 63.9491 5.05896 64.1529 5.05888C66.3811 5.05805 68.6093 5.05958 70.8375 5.06227C72.3305 5.06383 73.8234 5.06219 75.3164 5.05791C76.2483 5.05575 77.1802 5.05596 78.1122 5.05672C78.5419 5.05657 78.9716 5.05543 79.4014 5.05319C84.867 5.0258 89.7704 6.2453 93.8422 10.0939C97.4627 13.6796 99.3258 18.3016 99.353 23.373C99.356 28.636 97.6288 32.8877 94.0032 36.7493C93.1249 37.5941 92.1702 38.3021 91.1647 38.9876C91.01 39.0949 90.8554 39.2021 90.696 39.3127C87.033 41.685 83.0018 41.9778 78.7747 41.9526C78.3313 41.9521 77.8878 41.9519 77.4444 41.952C76.495 41.9516 75.5457 41.9496 74.5963 41.9462C73.0941 41.9412 71.5919 41.9414 70.0897 41.9426C69.5741 41.9429 69.0584 41.9432 68.5427 41.9435C68.4139 41.9436 68.2851 41.9436 68.1524 41.9437C66.6918 41.9444 65.2311 41.9436 63.7705 41.9425C63.5706 41.9423 63.5706 41.9423 63.3666 41.9422C61.2032 41.9403 59.0398 41.9354 56.8764 41.9299C54.6488 41.9244 52.4212 41.9241 50.1937 41.928C48.7012 41.9304 47.2089 41.9267 45.7164 41.9186C44.7879 41.915 43.8594 41.9171 42.9309 41.9207C42.5014 41.9213 42.0718 41.9195 41.6423 41.9153C38.5566 41.8459 38.5566 41.8459 36.0117 43.4386C30.9541 46.6811 24.7061 47.7048 18.8399 46.5288C14.3479 45.5433 10.5035 43.529 7.1773 40.3423C7.03262 40.2098 6.88793 40.0773 6.73886 39.9408C4.59242 37.9107 3.15248 35.4664 1.95228 32.795C1.85874 32.5884 1.76519 32.3819 1.66881 32.1691C-0.28889 27.4801 -0.533599 21.5856 0.984686 16.7329C1.02513 16.6006 1.06557 16.4683 1.10724 16.332C3.04667 10.1883 7.44647 5.39792 13.0899 2.43293C20.4495 -1.28449 29.4891 -0.623554 36.3987 3.7671Z" fill="#ED2E2F"/>
<path d="M23.6143 6.19824C23.8571 6.19437 24.1 6.19051 24.3502 6.18652C26.094 6.18742 27.5922 6.49143 29.2384 7.05698C29.3789 7.10461 29.5193 7.15224 29.6641 7.20132C33.9948 8.76655 37.3234 12.0944 39.3483 16.1698C41.4452 20.6577 41.2625 25.4508 39.6401 30.0374C38.7461 32.2207 37.4526 34.014 35.8181 35.6978C35.637 35.9003 35.637 35.9003 35.4522 36.1068C32.8135 38.9617 28.6625 40.6227 24.8147 40.7966C19.4279 40.9268 15.0806 39.4978 11.1126 35.7802C7.63005 32.1637 6.09574 27.6387 6.16881 22.6927C6.32167 18.0162 8.3465 13.8383 11.7491 10.625C15.1773 7.65812 19.0743 6.17267 23.6143 6.19824Z" fill="#FEFEFE"/>
<path d="M37.9469 4.92823C38.2762 5.2438 38.5992 5.56615 38.9145 5.89583C39.106 6.0798 39.2983 6.26295 39.4912 6.44539C43.8327 10.609 46.7769 16.3234 46.9068 22.4181C46.9417 29.5855 44.4032 35.5492 39.3862 40.6688C39.1657 40.8838 38.9439 41.0975 38.721 41.3099C38.6089 41.4186 38.4969 41.5274 38.3815 41.6395C34.0029 45.6981 27.8172 47.1618 22.0043 46.9514C16.3846 46.6243 11.2156 44.2112 7.1773 40.3423C7.03262 40.2098 6.88793 40.0773 6.73886 39.9409C4.59242 37.9108 3.15248 35.4664 1.95228 32.795C1.85874 32.5885 1.76519 32.3819 1.66881 32.1691C-0.28889 27.4801 -0.533599 21.5856 0.984686 16.7329C1.02513 16.6006 1.06557 16.4683 1.10724 16.332C3.04667 10.1883 7.44647 5.39794 13.0899 2.43294C20.8577 -1.49065 31.1679 -0.675398 37.9469 4.92823ZM12.4023 10.1533C12.1587 10.346 12.1587 10.346 11.9102 10.5426C8.60626 13.3138 6.58941 17.4966 6.20971 21.7644C5.91926 26.5744 7.14848 30.9884 10.2736 34.7302C10.3721 34.8569 10.4707 34.9837 10.5722 35.1142C12.6079 37.6275 15.8446 39.5822 18.982 40.3423C19.1329 40.3814 19.2838 40.4206 19.4393 40.4609C24.2628 41.4871 28.9484 40.5633 33.1195 38.051C37.3432 35.1557 39.7175 31.0214 40.7726 26.0543C40.8742 25.2465 40.8777 24.4524 40.8739 23.6391C40.8746 23.4836 40.8753 23.3281 40.8761 23.1678C40.8734 21.4699 40.6999 19.9396 40.1482 18.3294C40.0969 18.1788 40.0456 18.0281 39.9927 17.8729C39.2196 15.6802 38.1067 13.8542 36.5922 12.0884C36.5039 11.9722 36.4156 11.856 36.3246 11.7362C34.1648 8.95559 30.6253 7.33603 27.3033 6.47639C27.1904 6.44265 27.0776 6.40891 26.9613 6.37415C21.794 5.28237 16.4228 6.8831 12.4023 10.1533Z" fill="#ED2E2F"/>
<path d="M23.3482 0.0297603C23.5286 0.0308517 23.7091 0.0319431 23.895 0.0330675C29.0575 0.121301 34.6496 1.76903 38.4525 5.41277C38.6049 5.57218 38.7573 5.73158 38.9144 5.89581C39.1059 6.07979 39.2982 6.26293 39.4912 6.44538C43.8326 10.6089 46.7768 16.3234 46.9067 22.418C46.9416 29.5855 44.4031 35.5492 39.3861 40.6688C39.1656 40.8838 38.9439 41.0975 38.7209 41.3098C38.6089 41.4186 38.4969 41.5274 38.3815 41.6394C34.374 45.354 28.7533 46.9279 23.4087 46.9703C23.2318 46.9721 23.055 46.9739 22.8728 46.9758C22.7059 46.975 22.539 46.9742 22.367 46.9733C22.1435 46.9727 22.1435 46.9727 21.9156 46.972C21.4476 46.9159 21.1303 46.7675 20.7236 46.5349C20.886 46.5109 21.0484 46.487 21.2157 46.4623C27.1851 45.4386 32.7937 42.1434 36.3503 37.1976C39.6995 32.0876 41.4178 26.1414 40.4625 20.0227C40.3987 19.8311 40.3348 19.6396 40.269 19.4422C40.0755 18.8616 40.0755 18.8616 40.0271 18.1117C39.5424 13.2802 35.8204 8.42842 32.1985 5.42921C28.9217 2.84862 24.895 0.95596 20.7236 0.477274C21.597 -0.0180403 22.3644 0.0235571 23.3482 0.0297603Z" fill="#ED2E2F"/>
<path d="M76.6508 5.12173C77.5347 5.10714 78.4185 5.09673 79.3025 5.08984C79.6018 5.08696 79.9011 5.08303 80.2004 5.07794C85.3319 4.99288 90.0637 6.52239 93.8423 10.0939C97.4628 13.6796 99.3259 18.3016 99.3531 23.373C99.3561 28.636 97.6288 32.8877 94.0033 36.7493C93.125 37.5941 92.1703 38.3021 91.1648 38.9876C91.0101 39.0949 90.8554 39.2021 90.6961 39.3127C87.3791 41.4609 83.6201 41.9924 79.7592 41.9267C79.4555 41.9238 79.1517 41.9211 78.8479 41.9188C78.1155 41.9125 77.3832 41.9025 76.6508 41.8904C76.6508 41.8265 76.6508 41.7627 76.6508 41.6969C76.8267 41.6662 77.0026 41.6355 77.1838 41.6039C82.3535 40.6442 86.8503 38.3928 89.9318 34.0226C92.7751 29.8108 93.7352 24.6796 92.8056 19.6963C91.8726 15.2496 89.2878 11.1645 85.5262 8.57409C84.2318 7.75455 82.9089 7.05131 81.4888 6.47637C81.3747 6.42893 81.2606 6.38148 81.1431 6.3326C80.1747 5.94608 79.2268 5.73224 78.199 5.56925C78.049 5.54418 77.8991 5.51911 77.7447 5.49328C77.3803 5.43255 77.0156 5.3737 76.6508 5.31525C76.6508 5.25139 76.6508 5.18753 76.6508 5.12173Z" fill="#ED2E2F"/>
<path d="M21.1107 14.9913C21.6894 15.2847 22.1842 15.6703 22.6951 16.0678C22.8443 16.1797 22.9935 16.2917 23.1473 16.407C23.4662 16.6467 23.784 16.8879 24.1009 17.1303C24.5981 17.5102 25.0985 17.8853 25.6002 18.2592C26.2593 18.7507 26.917 19.244 27.5732 19.7393C28.1144 20.1476 28.6573 20.5531 29.2045 20.9534C29.3662 21.0723 29.3662 21.0723 29.5311 21.1936C29.8062 21.3955 30.0821 21.5963 30.358 21.797C30.9743 22.3067 31.3257 22.6867 31.464 23.482C31.2907 24.5648 30.4983 25.2026 29.652 25.8299C29.366 26.0325 29.079 26.2335 28.791 26.4332C28.4781 26.6544 28.1654 26.8759 27.8529 27.0976C27.6959 27.2086 27.539 27.3196 27.3773 27.4339C26.6823 27.9309 26.001 28.4454 25.3197 28.961C25.0671 29.1503 24.8143 29.3396 24.5615 29.5287C24.0622 29.9025 23.5667 30.2807 23.0723 30.6611C22.8338 30.8404 22.5952 31.0196 22.3565 31.1986C22.2505 31.2819 22.1446 31.3653 22.0354 31.4512C21.2608 32.0238 20.707 32.131 19.7561 32.021C19.1001 31.6075 18.8415 31.4061 18.5949 30.6664C18.5736 30.2058 18.5641 29.7446 18.5607 29.2835C18.5594 29.1434 18.5581 29.0033 18.5568 28.859C18.553 28.3956 18.5508 27.9322 18.5488 27.4688C18.548 27.3104 18.5472 27.152 18.5464 26.9888C18.5424 26.1508 18.5396 25.3128 18.5378 24.4747C18.5357 23.6094 18.529 22.7442 18.5213 21.879C18.5163 21.2132 18.5147 20.5475 18.514 19.8818C18.513 19.5628 18.5108 19.2439 18.5072 18.9249C18.5025 18.4783 18.5026 18.032 18.504 17.5854C18.5029 17.3315 18.5017 17.0775 18.5005 16.8159C18.6102 16.0454 18.8249 15.73 19.369 15.1848C19.9878 14.8754 20.4233 14.9188 21.1107 14.9913Z" fill="#ED2E2F"/>
<path d="M84.8747 15.2498C85.0811 15.2484 85.0811 15.2484 85.2917 15.247C85.5817 15.2464 85.8717 15.2481 86.1617 15.2522C86.6032 15.2574 87.0438 15.2522 87.4853 15.246C87.7681 15.2467 88.051 15.2479 88.3338 15.2498C88.7168 15.2514 88.7168 15.2514 89.1075 15.2531C90.0234 15.4163 90.3382 15.6733 90.9713 16.3459C90.9836 17.0623 90.9398 17.4892 90.4996 18.0634C89.9089 18.4887 89.5186 18.4975 88.7987 18.4935C88.5992 18.4929 88.3996 18.4923 88.194 18.4916C87.8804 18.4892 87.8804 18.4892 87.5605 18.4867C87.2447 18.4854 87.2447 18.4854 86.9225 18.4841C86.4014 18.4818 85.8803 18.4783 85.3592 18.4746C85.3592 19.6241 85.3592 20.7736 85.3592 21.958C85.6414 21.949 85.9235 21.94 86.2142 21.9308C86.5864 21.9235 86.9585 21.9165 87.3307 21.9096C87.5164 21.9031 87.7022 21.8966 87.8935 21.8899C89.2752 21.8708 89.2752 21.8708 90.0249 22.3125C90.4994 22.8567 90.599 23.1716 90.5843 23.8932C90.2416 24.4248 89.9915 24.7701 89.4231 25.0543C89.1146 25.0705 88.8053 25.075 88.4964 25.0732C88.3143 25.0726 88.1322 25.0719 87.9445 25.0713C87.7539 25.0697 87.5634 25.0681 87.367 25.0664C87.0789 25.0651 87.0789 25.0651 86.7849 25.0637C86.3097 25.0615 85.8345 25.058 85.3592 25.0543C85.3592 26.2038 85.3592 27.3533 85.3592 28.5376C85.6716 28.5331 85.9839 28.5287 86.3057 28.524C86.7159 28.5204 87.1261 28.5169 87.5363 28.5134C87.7421 28.5102 87.9479 28.507 88.16 28.5036C88.3583 28.5024 88.5566 28.5011 88.7609 28.4998C88.9434 28.4978 89.1258 28.4958 89.3137 28.4937C89.8422 28.5405 90.1429 28.6342 90.5843 28.9247C90.9713 29.5052 90.9713 29.5052 90.9592 30.1705C90.7378 31.0116 90.5395 31.18 89.8102 31.6339C89.2967 31.7118 88.865 31.7473 88.3527 31.7436C88.2147 31.7448 88.0766 31.746 87.9343 31.7472C87.6435 31.7486 87.3527 31.748 87.0619 31.7455C86.6183 31.7428 86.1755 31.7494 85.7319 31.7568C85.4484 31.757 85.165 31.7566 84.8815 31.7556C84.7498 31.7582 84.6182 31.7608 84.4825 31.7634C83.7913 31.75 83.4551 31.6581 82.9055 31.2306C82.342 30.5226 82.334 30.1546 82.3312 29.2573C82.3295 29.119 82.3278 28.9808 82.3261 28.8383C82.3219 28.3832 82.3247 27.9284 82.3279 27.4733C82.3273 27.1559 82.3263 26.8385 82.3251 26.5212C82.3237 25.8568 82.3258 25.1925 82.3303 24.5282C82.3358 23.6776 82.3326 22.8273 82.3268 21.9767C82.3233 21.3216 82.3245 20.6665 82.327 20.0114C82.3276 19.6978 82.3268 19.3843 82.3246 19.0707C82.3221 18.632 82.3259 18.1937 82.3312 17.755C82.332 17.5056 82.3328 17.2563 82.3336 16.9994C82.6056 15.5525 83.5275 15.2556 84.8747 15.2498Z" fill="#FFFBFB"/>
<path d="M69.2969 15.2573C70.0456 15.4133 70.4092 15.7416 70.8451 16.3459C71.1565 17.0035 71.3825 17.6836 71.6101 18.374C71.677 18.5693 71.7439 18.7646 71.8128 18.9659C72.0251 19.5874 72.2334 20.2102 72.4416 20.8331C72.6535 21.4578 72.8661 22.0822 73.0787 22.7066C73.2106 23.0946 73.3417 23.4829 73.4722 23.8715C73.5311 24.0466 73.5899 24.2216 73.6506 24.402C73.7022 24.5564 73.7539 24.7107 73.8071 24.8698C73.9356 25.2559 73.9356 25.2559 74.1349 25.6348C74.1716 25.5206 74.2082 25.4063 74.246 25.2887C74.6286 24.0977 75.0155 22.9081 75.4047 21.7193C75.5493 21.2757 75.6928 20.8318 75.8353 20.3875C76.0406 19.7482 76.2496 19.1102 76.4594 18.4723C76.5221 18.2741 76.5849 18.0759 76.6495 17.8717C77.0017 16.8142 77.2842 16.0477 78.1988 15.3783C78.8799 15.3783 79.3308 15.4497 79.9284 15.7774C80.3756 16.5928 80.1946 17.4647 79.9733 18.3266C79.7372 19.0926 79.4869 19.8524 79.2299 20.6116C79.1362 20.8934 79.0426 21.1752 78.9491 21.4571C78.7534 22.0456 78.5561 22.6335 78.3576 23.221C78.1039 23.9723 77.8541 24.7247 77.6055 25.4776C77.413 26.059 77.2187 26.6398 77.0237 27.2203C76.9308 27.4975 76.8386 27.7749 76.7469 28.0524C76.6183 28.4407 76.4872 28.8279 76.3553 29.215C76.2814 29.4351 76.2075 29.6552 76.1313 29.882C75.8131 30.6201 75.4518 31.2657 74.7155 31.6339C74.0482 31.708 73.6682 31.6983 73.0789 31.3648C72.373 30.6405 72.1516 29.8616 71.8369 28.9125C71.7668 28.7093 71.6967 28.506 71.6245 28.2965C71.4609 27.8222 71.2985 27.3475 71.1371 26.8724C70.7976 25.8781 70.4451 24.8885 70.0937 23.8984C69.8943 23.3348 69.6952 22.7711 69.4962 22.2074C69.3638 21.8327 69.2311 21.4581 69.0981 21.0836C68.9091 20.5505 68.7219 20.0168 68.535 19.483C68.478 19.3233 68.421 19.1636 68.3623 18.9991C68.0563 18.1194 67.803 17.2834 67.7488 16.3459C68.2138 15.6835 68.501 15.4231 69.2969 15.2573Z" fill="#FFFBFC"/>
<path d="M54.517 15.3782C55.3798 15.6338 55.3798 15.6338 55.7507 16.1523C55.8205 16.6996 55.8205 16.6996 55.8166 17.3728C55.8166 17.6246 55.8165 17.8764 55.8165 18.1359C55.8135 18.4108 55.8105 18.6857 55.8074 18.9605C55.8063 19.2417 55.8055 19.5229 55.8049 19.8041C55.8027 20.5438 55.797 21.2835 55.7906 22.0231C55.7846 22.7781 55.782 23.533 55.7791 24.288C55.7728 25.769 55.7629 27.25 55.7507 28.731C55.9205 28.7249 55.9205 28.7249 56.0937 28.7187C56.6083 28.7026 57.1228 28.6926 57.6375 28.6826C57.8156 28.6761 57.9938 28.6697 58.1773 28.663C59.4948 28.6439 59.4948 28.6439 60.1253 29.0787C60.526 29.7118 60.5128 30.1277 60.3952 30.8597C59.8796 31.391 59.5525 31.6126 58.8179 31.737C58.0856 31.7439 57.3539 31.7487 56.6215 31.7426C56.2388 31.7496 56.2388 31.7496 55.8482 31.7566C55.6025 31.7563 55.3568 31.7559 55.1036 31.7555C54.8797 31.7556 54.6559 31.7558 54.4252 31.7559C53.6151 31.5936 53.3621 31.3059 52.8479 30.6662C52.7251 30.0127 52.7251 30.0127 52.7227 29.2571C52.721 29.1189 52.7193 28.9806 52.7176 28.8382C52.7133 28.383 52.7161 27.9283 52.7194 27.4731C52.7188 27.1558 52.7178 26.8384 52.7166 26.521C52.7152 25.8566 52.7172 25.1924 52.7218 24.528C52.7273 23.6774 52.7241 22.8271 52.7183 21.9766C52.7148 21.3214 52.7159 20.6664 52.7184 20.0113C52.7191 19.6977 52.7183 19.3841 52.716 19.0706C52.7136 18.6318 52.7173 18.1936 52.7227 17.7548C52.7235 17.5055 52.7243 17.2562 52.7251 16.9993C52.925 15.936 53.4218 15.3782 54.517 15.3782Z" fill="#FFFDFD"/>
<path d="M64.06 15.2694C64.8636 15.417 65.112 15.714 65.6202 16.3459C65.7431 16.9994 65.7431 16.9994 65.7454 17.7549C65.7471 17.8932 65.7488 18.0314 65.7506 18.1739C65.7548 18.629 65.752 19.0838 65.7487 19.5389C65.7494 19.8563 65.7503 20.1737 65.7516 20.491C65.753 21.1554 65.7509 21.8197 65.7464 22.4841C65.7409 23.3346 65.744 24.1849 65.7498 25.0355C65.7533 25.6906 65.7522 26.3457 65.7497 27.0008C65.7491 27.3144 65.7499 27.6279 65.7521 27.9415C65.7546 28.3802 65.7508 28.8185 65.7454 29.2572C65.7447 29.5066 65.7439 29.7559 65.7431 30.0128C65.5884 30.8354 65.3033 31.1233 64.6526 31.6339C64.06 31.7427 64.06 31.7427 63.4915 31.6339C63.0752 31.3291 63.0752 31.3291 62.7174 30.8598C62.641 30.3572 62.6114 29.9363 62.6173 29.4341C62.6159 29.2918 62.6146 29.1495 62.6132 29.0028C62.6098 28.5332 62.612 28.0638 62.6146 27.5942C62.6141 27.2674 62.6134 26.9406 62.6124 26.6138C62.6113 25.9293 62.6129 25.2448 62.6165 24.5602C62.6209 23.683 62.6184 22.8059 62.6138 21.9287C62.611 21.254 62.6119 20.5793 62.6139 19.9046C62.6144 19.5812 62.6137 19.2577 62.6119 18.9343C62.61 18.4821 62.613 18.0302 62.6173 17.578C62.6157 17.4445 62.6142 17.311 62.6125 17.1734C62.6239 16.5305 62.6809 16.2003 63.0752 15.683C63.4915 15.3783 63.4915 15.3783 64.06 15.2694Z" fill="#FFFEFE"/>
<path d="M18.595 16.1524C18.6588 16.1524 18.7227 16.1524 18.7885 16.1524C18.7867 16.2624 18.785 16.3724 18.7832 16.4858C18.8193 17.4346 18.8193 17.4346 19.2625 18.2501C19.4988 18.468 19.7376 18.6834 19.9783 18.8964C21.2625 20.1589 21.542 21.7009 21.5582 23.4336C21.5559 25.7069 20.948 27.0276 19.3554 28.6593C18.8053 29.3353 18.7726 29.8106 18.7885 30.6664C18.7246 30.6664 18.6608 30.6664 18.595 30.6664C18.595 25.8767 18.595 21.0871 18.595 16.1524Z" fill="#ED2E2F"/>
</svg>
