<?xml version="1.0" encoding="UTF-8"?>
<svg id="Layer_1" data-name="Layer 1" xmlns="http://www.w3.org/2000/svg" viewBox="0 0 1234.55 850.25">
  <path d="m4.34,86.92c197.33-43.81,448.25,26.89,540.72,158.08,93.73,132.97,77.84,302.31,249.19,445.28,149.81,124.99,314.55,155.15,314.55,155.15,0,0-435.38,3.45-1103.94,5.68l-.53-764.19Z" style="fill: #f9e3d6; opacity: .1; stroke-width: 0px;"/>
  <path d="m.79,240.92c324.55-56.82,395.28,12.57,458.49,89.87,102.25,125.04,73.46,267.27,217.55,390.59,140.72,120.45,321.06,122.71,321.06,122.71,0,0-143.39,4.94-993.02,7.02L.79,240.92Z" style="fill: #f9e3d6; opacity: .5; stroke-width: 0px;"/>
  <path d="m1.66,412.49c190.58-18.64,274.08,29.46,318.72,77.62,68.65,74.05,40.5,153.12,122.09,243.22,95.79,105.78,230.96,115.55,230.96,115.55,0,0-156.36-5.36-670.3,1.09-5.21-23-2.35-48.42-2.35-73.58,0-136.85,4-259.4.87-363.89Z" style="fill: #f9e3d6; stroke-width: 0px;"/>
</svg>