<?xml version="1.0" encoding="UTF-8"?>
<svg id="Camada_1" data-name="Camada 1" xmlns="http://www.w3.org/2000/svg" viewBox="0 0 500 500" fill="#fcf3f3">
  <path d="m114.71,5.58c-4.81,2.21-8.76,6.74-10.1,11.55-.48,1.92-.96,7.99-.96,13.28v9.82l-18.96.38c-21.36.48-26.85,1.73-38.78,8.18-9.62,5.29-20.88,17.22-25.88,27.33-7.99,16.26-7.31-.67-7.31,192.36s-.58,176.09,7.22,192.07c7.12,14.63,20.98,26.65,37.43,32.52l8.28,2.98h368.55l7.7-2.69c21.65-7.6,37.62-24.83,43.49-46.86,1.64-5.87,1.73-17.22,1.73-178.02,0-193.13.67-176-7.41-192.45-5.68-11.55-17.13-23-28.68-28.58-11.26-5.58-19.53-7.02-38.97-7.02h-15.88v-9.91c0-11.64-1.06-15.97-4.91-20.4-8.37-9.43-24.25-7.51-29.73,3.75-1.64,3.37-1.92,5.97-1.92,15.3v11.26h-219.2l-.38-12.32c-.29-11.16-.48-12.7-2.6-15.78-5.29-7.6-14.72-10.49-22.71-6.74Zm-10.87,82.66c.38,13.18,1.92,17.22,7.7,21.46,7.02,5.1,15.97,4.62,22.61-1.25,5.1-4.52,6.06-7.6,6.06-20.4v-11.07h219.4v11.07c0,12.8.96,15.88,6.06,20.4,6.83,5.97,16.17,6.25,23.38.77,5.1-3.85,6.54-8.18,6.93-20.98l.38-11.26h15.3c12.99,0,15.97.29,20.5,1.92,6.64,2.5,12.51,8.18,15.78,15.2l2.6,5.48.29,29.54.38,29.64H48.6l.38-29.64c.29-25.79.58-30.02,2.02-33.39,2.69-6.16,6.35-10.68,10.49-13.47,6.93-4.62,9.82-5.2,26.37-5.2l15.59-.1.38,11.26Zm346.99,228.06l-.29,121.05-2.5,5.29c-2.98,6.35-8.18,11.64-14.24,14.63l-4.43,2.21H70.45l-4.43-2.21c-6.16-2.98-11.26-8.18-14.24-14.53l-2.5-5.39-.29-121.05-.19-120.96h402.23l-.19,120.96Z" style="stroke-width: 0px;"/>
  <rect x="36.38" y="188.23" width="426.89" height="276.77" style="stroke-width: 0px;"/>
</svg>