<svg width="201" height="55" viewBox="0 0 201 55" fill="none" xmlns="http://www.w3.org/2000/svg">
<path d="M3 29.6778C1.66666 28.908 1.66667 26.9835 3 26.2137L19.4186 16.7344C20.7519 15.9646 22.4186 16.9269 22.4186 18.4665L22.4186 37.425C22.4186 38.9646 20.7519 39.9269 19.4186 39.1571L3 29.6778Z" fill="#F8E2D6"/>
<rect x="20" width="181" height="55" rx="15" fill="#F8E2D6"/>
<path d="M50.8563 37V19.5H52.8063V37H50.8563ZM51.8313 29.2V27.275H60.6813V29.2H51.8313ZM51.8313 21.4V19.5H61.8563V21.4H51.8313ZM69.6594 37.25C68.526 37.25 67.501 36.9583 66.5844 36.375C65.6677 35.775 64.9427 34.9667 64.4094 33.95C63.876 32.9167 63.6094 31.75 63.6094 30.45C63.6094 29.1333 63.8844 27.9667 64.4344 26.95C64.9844 25.9333 65.7177 25.1333 66.6344 24.55C67.5677 23.9667 68.6094 23.675 69.7594 23.675C70.4427 23.675 71.076 23.775 71.6594 23.975C72.2427 24.175 72.7594 24.4583 73.2094 24.825C73.676 25.175 74.0594 25.5917 74.3594 26.075C74.676 26.5417 74.8927 27.05 75.0094 27.6L74.4594 27.325L74.5344 23.95H76.4094V37H74.5094V33.8L75.0094 33.475C74.8927 33.975 74.6677 34.4583 74.3344 34.925C74.001 35.375 73.5927 35.775 73.1094 36.125C72.6427 36.475 72.1094 36.75 71.5094 36.95C70.926 37.15 70.3094 37.25 69.6594 37.25ZM70.0844 35.45C70.951 35.45 71.726 35.2417 72.4094 34.825C73.0927 34.3917 73.626 33.8 74.0094 33.05C74.4094 32.2833 74.6094 31.4167 74.6094 30.45C74.6094 29.4833 74.4094 28.625 74.0094 27.875C73.626 27.125 73.0927 26.5333 72.4094 26.1C71.726 25.6667 70.951 25.45 70.0844 25.45C69.201 25.45 68.4177 25.6667 67.7344 26.1C67.0677 26.5333 66.5344 27.125 66.1344 27.875C65.751 28.625 65.5594 29.4833 65.5594 30.45C65.5594 31.4 65.751 32.2583 66.1344 33.025C66.5177 33.775 67.051 34.3667 67.7344 34.8C68.4177 35.2333 69.201 35.45 70.0844 35.45ZM83.8193 37L78.3193 23.95H80.3943L84.7443 34.625L84.2443 34.9L89.0193 23.95H91.0193L85.1693 37H83.8193ZM98.6303 37.25C97.3303 37.25 96.1719 36.9583 95.1553 36.375C94.1553 35.7917 93.3636 34.9833 92.7803 33.95C92.2136 32.9167 91.9303 31.7417 91.9303 30.425C91.9303 29.125 92.2136 27.9667 92.7803 26.95C93.3636 25.9333 94.1553 25.1333 95.1553 24.55C96.1719 23.9667 97.3303 23.675 98.6303 23.675C99.9136 23.675 101.055 23.9667 102.055 24.55C103.072 25.1333 103.864 25.9333 104.43 26.95C105.014 27.9667 105.305 29.125 105.305 30.425C105.305 31.7417 105.014 32.9167 104.43 33.95C103.864 34.9833 103.072 35.7917 102.055 36.375C101.055 36.9583 99.9136 37.25 98.6303 37.25ZM98.6303 35.475C99.5469 35.475 100.364 35.2583 101.08 34.825C101.797 34.375 102.355 33.775 102.755 33.025C103.155 32.2583 103.355 31.3917 103.355 30.425C103.355 29.4583 103.155 28.6 102.755 27.85C102.355 27.1 101.797 26.5167 101.08 26.1C100.364 25.6667 99.5469 25.45 98.6303 25.45C97.7136 25.45 96.8886 25.6667 96.1553 26.1C95.4386 26.5167 94.8719 27.1083 94.4553 27.875C94.0553 28.625 93.8636 29.475 93.8803 30.425C93.8636 31.3917 94.0553 32.2583 94.4553 33.025C94.8719 33.775 95.4386 34.375 96.1553 34.825C96.8886 35.2583 97.7136 35.475 98.6303 35.475ZM112.666 37.25C111.666 37.25 110.816 37.05 110.116 36.65C109.432 36.2333 108.907 35.6333 108.541 34.85C108.191 34.0667 108.016 33.0917 108.016 31.925V23.95H109.916V31.55C109.916 32.4333 110.032 33.175 110.266 33.775C110.516 34.3583 110.882 34.8 111.366 35.1C111.866 35.4 112.474 35.55 113.191 35.55C113.741 35.55 114.249 35.4583 114.716 35.275C115.182 35.075 115.591 34.8083 115.941 34.475C116.291 34.1417 116.566 33.75 116.766 33.3C116.966 32.85 117.066 32.375 117.066 31.875V23.95H118.941V37H117.091L117.016 34.25L117.316 34.1C117.116 34.6833 116.782 35.2167 116.316 35.7C115.849 36.1667 115.291 36.5417 114.641 36.825C114.007 37.1083 113.349 37.25 112.666 37.25ZM122.592 37V23.95H124.467L124.517 27.425L124.317 26.95C124.5 26.3667 124.792 25.825 125.192 25.325C125.608 24.825 126.1 24.425 126.667 24.125C127.233 23.825 127.858 23.675 128.542 23.675C128.825 23.675 129.092 23.7 129.342 23.75C129.592 23.7833 129.8 23.8333 129.967 23.9L129.442 26C129.225 25.9 129 25.8333 128.767 25.8C128.55 25.75 128.342 25.725 128.142 25.725C127.575 25.725 127.067 25.825 126.617 26.025C126.167 26.225 125.783 26.5083 125.467 26.875C125.15 27.225 124.908 27.6333 124.742 28.1C124.575 28.5667 124.492 29.0667 124.492 29.6V37H122.592ZM132.418 37V23.95H134.293V37H132.418ZM133.343 21.125C132.876 21.125 132.518 21.0083 132.268 20.775C132.034 20.525 131.918 20.1917 131.918 19.775C131.918 19.3583 132.043 19.025 132.293 18.775C132.543 18.525 132.893 18.4 133.343 18.4C133.793 18.4 134.143 18.525 134.393 18.775C134.643 19.0083 134.768 19.3417 134.768 19.775C134.768 20.175 134.643 20.5 134.393 20.75C134.143 21 133.793 21.125 133.343 21.125ZM140.188 37V20.525H142.063V37H140.188ZM137.238 25.75V23.95H145.363V25.75H137.238ZM153.293 37.25C151.993 37.25 150.834 36.9667 149.818 36.4C148.818 35.8333 148.034 35.0417 147.468 34.025C146.901 33.0083 146.618 31.8417 146.618 30.525C146.618 29.5083 146.776 28.5917 147.093 27.775C147.409 26.9417 147.851 26.2167 148.418 25.6C149.001 24.9833 149.693 24.5083 150.493 24.175C151.293 23.825 152.159 23.65 153.093 23.65C153.976 23.65 154.776 23.8083 155.493 24.125C156.226 24.4417 156.851 24.8833 157.368 25.45C157.901 26 158.301 26.6583 158.568 27.425C158.834 28.1917 158.951 29.0333 158.918 29.95L158.893 30.825H148.018L147.743 29.25H157.468L157.018 29.675V29.075C156.984 28.475 156.809 27.9 156.493 27.35C156.176 26.7833 155.726 26.325 155.143 25.975C154.576 25.625 153.893 25.45 153.093 25.45C152.159 25.45 151.351 25.6417 150.668 26.025C149.984 26.3917 149.459 26.9417 149.093 27.675C148.726 28.4083 148.543 29.3167 148.543 30.4C148.543 31.4333 148.743 32.3333 149.143 33.1C149.543 33.85 150.109 34.4333 150.843 34.85C151.593 35.2667 152.493 35.475 153.543 35.475C154.159 35.475 154.768 35.375 155.368 35.175C155.984 34.9583 156.659 34.5417 157.393 33.925L158.368 35.275C157.984 35.6583 157.526 36 156.993 36.3C156.459 36.5833 155.876 36.8167 155.243 37C154.609 37.1667 153.959 37.25 153.293 37.25ZM165.856 37.25C164.739 37.25 163.739 37.0417 162.856 36.625C161.973 36.2083 161.273 35.6583 160.756 34.975L162.081 33.825C162.564 34.4083 163.131 34.85 163.781 35.15C164.448 35.45 165.189 35.6 166.006 35.6C166.423 35.6 166.798 35.5583 167.131 35.475C167.464 35.375 167.756 35.2333 168.006 35.05C168.256 34.8667 168.448 34.65 168.581 34.4C168.714 34.15 168.781 33.875 168.781 33.575C168.781 33.025 168.539 32.5667 168.056 32.2C167.839 32.05 167.531 31.9 167.131 31.75C166.731 31.5833 166.248 31.425 165.681 31.275C164.748 31.0083 163.973 30.7417 163.356 30.475C162.739 30.1917 162.256 29.8667 161.906 29.5C161.656 29.2 161.464 28.875 161.331 28.525C161.214 28.175 161.156 27.7917 161.156 27.375C161.156 26.8417 161.264 26.35 161.481 25.9C161.714 25.45 162.031 25.0583 162.431 24.725C162.848 24.375 163.331 24.1167 163.881 23.95C164.448 23.7667 165.056 23.675 165.706 23.675C166.323 23.675 166.931 23.7583 167.531 23.925C168.131 24.0917 168.689 24.3333 169.206 24.65C169.723 24.9667 170.164 25.3417 170.531 25.775L169.381 27.025C169.064 26.6917 168.714 26.3917 168.331 26.125C167.948 25.8583 167.539 25.65 167.106 25.5C166.689 25.35 166.256 25.275 165.806 25.275C165.406 25.275 165.031 25.325 164.681 25.425C164.348 25.525 164.056 25.6667 163.806 25.85C163.573 26.0167 163.389 26.225 163.256 26.475C163.139 26.725 163.081 27 163.081 27.3C163.081 27.55 163.131 27.775 163.231 27.975C163.331 28.175 163.473 28.35 163.656 28.5C163.889 28.6833 164.214 28.8583 164.631 29.025C165.064 29.175 165.598 29.3333 166.231 29.5C166.964 29.7 167.581 29.9083 168.081 30.125C168.598 30.325 169.023 30.5667 169.356 30.85C169.806 31.1833 170.123 31.5667 170.306 32C170.506 32.4333 170.606 32.925 170.606 33.475C170.606 34.2083 170.398 34.8583 169.981 35.425C169.581 35.9917 169.023 36.4417 168.306 36.775C167.589 37.0917 166.773 37.25 165.856 37.25Z" fill="#F16A64"/>
</svg>
