<svg width="77" height="104" viewBox="0 0 77 104" fill="none" xmlns="http://www.w3.org/2000/svg">
<path d="M28.4924 66.4642C30.1156 63.6527 33.7107 62.6894 36.5221 64.3126C39.3336 65.9358 40.2969 69.5308 38.6737 72.3423L26.6874 93.1031C24.2896 97.2564 18.1953 96.945 16.2332 92.569C15.4611 90.8471 15.5626 88.8592 16.5062 87.225L28.4924 66.4642Z" fill="#CE4444"/>
<path d="M28.4924 66.4642C30.1156 63.6527 29.1524 60.0577 26.3409 58.4345C23.5294 56.8113 19.9344 57.7745 18.3112 60.586L6.32493 81.3468C3.92705 85.5001 7.24382 90.6222 12.0146 90.1334C13.8919 89.9411 15.5626 88.8592 16.5062 87.225L28.4924 66.4642Z" fill="#983535"/>
<path d="M48.8957 66.4642C47.2725 63.6527 43.6775 62.6894 40.866 64.3126C38.0546 65.9358 37.0913 69.5308 38.7145 72.3423L50.7007 93.1031C53.0986 97.2564 59.1929 96.945 61.155 92.569C61.9271 90.8471 61.8255 88.8592 60.882 87.225L48.8957 66.4642Z" fill="#983535"/>
<path d="M48.8957 66.4642C47.2725 63.6527 48.2358 60.0577 51.0473 58.4345C53.8588 56.8113 57.4538 57.7745 59.077 60.586L71.0633 81.3468C73.4611 85.5001 70.1444 90.6222 65.3736 90.1334C63.4963 89.9411 61.8255 88.8592 60.882 87.225L48.8957 66.4642Z" fill="#CE4444"/>
<circle cx="38.3819" cy="36.717" r="35.5521" fill="url(#paint0_linear_104_207)" stroke="#765C00"/>
<circle cx="38.3818" cy="36.7169" r="27.3613" fill="#A88300"/>
<mask id="mask0_104_207" style="mask-type:alpha" maskUnits="userSpaceOnUse" x="12" y="12" width="56" height="56">
<circle cx="39.8424" cy="39.638" r="27.425" fill="#C28B37"/>
</mask>
<g mask="url(#mask0_104_207)">
<circle cx="38.3819" cy="36.717" r="27.425" fill="#C09525"/>
</g>
<path d="M33.8627 26.9721C35.7856 23.1262 41.2739 23.1262 43.1968 26.9721L43.276 27.1305C44.0068 28.592 45.4196 29.5916 47.041 29.7943C50.9491 30.2828 52.7035 34.9567 50.0822 37.8962L49.7893 38.2246C48.755 39.3844 48.3037 40.9513 48.5625 42.4835L48.6044 42.7314C49.3347 47.0542 44.8442 50.375 40.923 48.4144C39.4168 47.6613 37.6434 47.6609 36.1372 48.414C32.2185 50.3734 27.7349 47.0492 28.471 42.7301L28.512 42.4893C28.7737 40.9539 28.3214 39.383 27.2834 38.2218L26.9877 37.8909C24.364 34.956 26.1152 30.2822 30.0215 29.7939C31.641 29.5915 33.0522 28.593 33.7821 27.1332L33.8627 26.9721Z" fill="url(#paint1_linear_104_207)"/>
<defs>
<linearGradient id="paint0_linear_104_207" x1="38.3819" y1="1.66492" x2="38.3819" y2="71.7691" gradientUnits="userSpaceOnUse">
<stop stop-color="#FFC600"/>
<stop offset="1" stop-color="#FFDE69"/>
</linearGradient>
<linearGradient id="paint1_linear_104_207" x1="38.5297" y1="17.6379" x2="38.5297" y2="53.1337" gradientUnits="userSpaceOnUse">
<stop stop-color="#FFFCDD"/>
<stop offset="1" stop-color="#FFE896"/>
</linearGradient>
</defs>
</svg>
