<?xml version="1.0" encoding="UTF-8"?>
<!DOCTYPE svg PUBLIC "-//W3C//DTD SVG 1.1//EN" "http://www.w3.org/Graphics/SVG/1.1/DTD/svg11.dtd">
<svg xmlns="http://www.w3.org/2000/svg" version="1.1" width="512px" height="512px" style="shape-rendering:geometricPrecision; text-rendering:geometricPrecision; image-rendering:optimizeQuality; fill-rule:evenodd; clip-rule:evenodd" xmlns:xlink="http://www.w3.org/1999/xlink">
<g><path style="opacity:0.969" fill="#fcf3f3" d="M 242.5,-0.5 C 251.833,-0.5 261.167,-0.5 270.5,-0.5C 276.395,2.11781 282.062,5.28447 287.5,9C 359,80.5 430.5,152 502,223.5C 505.716,228.938 508.882,234.605 511.5,240.5C 511.5,249.833 511.5,259.167 511.5,268.5C 501.96,292.123 484.293,303.456 458.5,302.5C 458.667,354.168 458.5,405.834 458,457.5C 455.319,485.846 440.152,503.346 412.5,510C 380.167,510.667 347.833,510.667 315.5,510C 311.026,508.192 307.859,505.026 306,500.5C 305.667,457.833 305.333,415.167 305,372.5C 303.367,360.869 296.867,353.703 285.5,351C 266.167,350.333 246.833,350.333 227.5,351C 216.561,353.606 210.061,360.439 208,371.5C 207.667,414.5 207.333,457.5 207,500.5C 205.167,505 202,508.167 197.5,510C 164.833,510.667 132.167,510.667 99.5,510C 73.3221,503.156 58.4887,486.322 55,459.5C 54.5,407.168 54.3333,354.834 54.5,302.5C 21.6141,302.936 3.61414,286.936 0.5,254.5C 0.0595491,244.658 2.55955,235.658 8,227.5C 80.1392,154.361 152.639,81.5274 225.5,9C 230.938,5.28447 236.605,2.11781 242.5,-0.5 Z M 251.5,29.5 C 257.311,28.7743 262.645,29.9409 267.5,33C 337.667,103.167 407.833,173.333 478,243.5C 481.763,249.457 482.429,255.79 480,262.5C 476.955,266.942 472.789,269.776 467.5,271C 457.5,271.333 447.5,271.667 437.5,272C 433,273.833 429.833,277 428,281.5C 427.667,340.167 427.333,398.833 427,457.5C 425.602,468.235 419.769,475.402 409.5,479C 385.201,480.429 360.868,480.929 336.5,480.5C 336.667,443.832 336.5,407.165 336,370.5C 332.161,342.329 316.328,325.496 288.5,320C 266.833,319.333 245.167,319.333 223.5,320C 197.122,325.712 181.622,341.878 177,368.5C 176.5,405.832 176.333,443.165 176.5,480.5C 152.132,480.929 127.799,480.429 103.5,479C 93.2311,475.402 87.3977,468.235 86,457.5C 85.6667,398.833 85.3333,340.167 85,281.5C 83.1667,277 80,273.833 75.5,272C 65.5,271.667 55.5,271.333 45.5,271C 34.5149,267.998 30.0149,260.831 32,249.5C 32.5611,247.275 33.5611,245.275 35,243.5C 105.167,173.333 175.333,103.167 245.5,33C 247.432,31.5415 249.432,30.3748 251.5,29.5 Z"/></g>
</svg>
