<?xml version="1.0" encoding="UTF-8"?>
<!DOCTYPE svg PUBLIC "-//W3C//DTD SVG 1.1//EN" "http://www.w3.org/Graphics/SVG/1.1/DTD/svg11.dtd">
<svg xmlns="http://www.w3.org/2000/svg" version="1.1" width="512px" height="512px" style="shape-rendering:geometricPrecision; text-rendering:geometricPrecision; image-rendering:optimizeQuality; fill-rule:evenodd; clip-rule:evenodd" xmlns:xlink="http://www.w3.org/1999/xlink">
<g><path style="opacity:0.993" fill="#fcf3f3" d="M 245.5,-0.5 C 252.167,-0.5 258.833,-0.5 265.5,-0.5C 272.955,1.89414 279.955,5.39414 286.5,10C 358,81.5 429.5,153 501,224.5C 505.606,231.045 509.106,238.045 511.5,245.5C 511.5,252.167 511.5,258.833 511.5,265.5C 503.272,291.689 485.272,304.356 457.5,303.5C 457.961,358.19 457.461,412.857 456,467.5C 449.872,491.129 435.038,505.796 411.5,511.5C 379.167,511.5 346.833,511.5 314.5,511.5C 310.215,509.378 307.048,506.045 305,501.5C 304.974,457.129 304.307,412.796 303,368.5C 300.565,361.066 295.732,355.899 288.5,353C 277.555,351.88 266.555,351.38 255.5,351.5C 244.445,351.38 233.445,351.88 222.5,353C 214.118,356.924 208.951,363.424 207,372.5C 206.667,415.5 206.333,458.5 206,501.5C 203.978,506.02 200.811,509.353 196.5,511.5C 163.833,511.5 131.167,511.5 98.5,511.5C 75.9561,505.457 61.4561,491.124 55,468.5C 53.5386,413.523 53.0386,358.523 53.5,303.5C 25.7047,304.326 7.70472,291.659 -0.5,265.5C -0.5,258.833 -0.5,252.167 -0.5,245.5C 1.55846,237.854 5.05846,230.854 10,224.5C 81.5,153 153,81.5 224.5,10C 231.045,5.39414 238.045,1.89414 245.5,-0.5 Z"/></g>
</svg>
