<svg version="1.1" id="Layer_1" xmlns="http://www.w3.org/2000/svg" xmlns:xlink="http://www.w3.org/1999/xlink" x="0px" y="0px"
	 width="100%" viewBox="0 0 512 512" enable-background="new 0 0 512 512" xml:space="preserve">
<path fill="#4857a0" opacity="1.000000" stroke="none" 
	d="
M513.000000,263.000000 
	C513.000000,346.261078 513.000000,429.522186 513.000000,513.000000 
	C428.312561,513.000000 343.624939,513.000000 258.598938,512.619446 
	C265.847961,511.941345 271.290375,508.137970 275.020905,501.752258 
	C283.122009,487.885315 273.861023,469.020203 255.456924,469.011536 
	C191.983658,468.981567 128.510178,468.920990 65.037292,469.080322 
	C54.840279,469.105927 43.997108,460.411346 43.997505,448.017212 
	C44.001579,320.737457 44.012215,193.457733 43.980873,66.178001 
	C43.977779,53.622780 54.948540,44.860676 65.342033,44.895546 
	C127.981621,45.105705 190.622284,45.012524 253.262527,44.957836 
	C255.993301,44.955452 258.757721,44.508209 261.447906,43.973557 
	C271.053650,42.064495 276.022919,35.386917 277.677734,26.439438 
	C279.106079,18.716633 276.787170,11.532018 270.170959,6.814599 
	C266.565155,4.243619 262.085541,2.898167 258.000000,0.999999 
	C342.926300,1.000000 427.852631,1.000000 513.000000,1.000000 
	C513.000000,84.020767 513.000000,167.041718 512.640747,250.425644 
	C510.564636,247.739182 509.423248,244.114243 507.039978,241.731476 
	C488.115601,222.811264 468.883148,204.199692 449.886322,185.351196 
	C428.596039,164.227188 407.473999,142.933640 386.224518,121.768311 
	C382.965424,118.522118 379.582916,115.353851 375.965729,112.522255 
	C367.053040,105.545288 354.857300,105.729416 346.418091,114.584106 
	C338.340027,123.059845 338.993683,136.623138 346.990784,144.550278 
	C370.302551,167.658051 393.438568,190.943100 416.671722,214.130371 
	C417.807373,215.263809 419.337402,216.002975 420.468628,217.139847 
	C426.234314,222.934570 431.929138,228.799805 438.000977,235.000000 
	C435.581207,235.000000 433.766632,235.000000 431.952057,235.000000 
	C354.472839,235.000000 276.993591,234.986145 199.514389,235.042328 
	C195.777512,235.045044 192.000443,235.421677 188.311600,236.039352 
	C173.566055,238.508438 168.770859,251.015778 171.566528,262.971283 
	C174.079849,273.719299 182.933105,278.929810 194.757202,278.945435 
	C274.069153,279.050293 353.381287,279.000000 432.693359,279.000000 
	C434.369629,279.000000 436.045868,279.000000 439.050323,279.000000 
	C431.239105,286.236023 424.374969,292.228424 417.923553,298.636292 
	C393.808014,322.588959 369.773315,346.623718 345.828674,370.747162 
	C338.360199,378.271423 339.779053,393.447083 347.668549,400.366974 
	C357.309082,408.822784 370.363708,407.995422 380.760284,397.735901 
	C407.161316,371.682831 433.580139,345.647675 459.932251,319.545258 
	C474.137573,305.474518 488.351654,291.407562 502.277100,277.062531 
	C506.353943,272.862854 509.452850,267.713867 513.000000,263.000000 
z"/>
<path fill="#fcf3f3" opacity="1.000000" stroke="none" 
	d="
M257.531342,0.999999 
	C262.085541,2.898167 266.565155,4.243619 270.170959,6.814599 
	C276.787170,11.532018 279.106079,18.716633 277.677734,26.439438 
	C276.022919,35.386917 271.053650,42.064495 261.447906,43.973557 
	C258.757721,44.508209 255.993301,44.955452 253.262527,44.957836 
	C190.622284,45.012524 127.981621,45.105705 65.342033,44.895546 
	C54.948540,44.860676 43.977779,53.622780 43.980873,66.178001 
	C44.012215,193.457733 44.001579,320.737457 43.997505,448.017212 
	C43.997108,460.411346 54.840279,469.105927 65.037292,469.080322 
	C128.510178,468.920990 191.983658,468.981567 255.456924,469.011536 
	C273.861023,469.020203 283.122009,487.885315 275.020905,501.752258 
	C271.290375,508.137970 265.847961,511.941345 258.130249,512.619446 
	C192.979111,513.000000 127.958214,513.000000 62.312523,512.599304 
	C57.152313,511.667755 52.441666,511.746643 48.111370,510.502106 
	C27.815538,504.669128 13.251040,492.127289 5.115403,472.451233 
	C3.684967,468.991699 2.368891,465.484955 1.000003,462.000000 
	C1.000000,325.312439 1.000000,188.624878 1.368598,51.366386 
	C2.085311,50.442570 2.639317,50.145432 2.752119,49.728836 
	C9.726158,23.972504 26.165688,8.275059 52.380070,2.936023 
	C55.585194,2.283240 58.793285,1.644987 62.000000,1.000000 
	C127.020897,1.000000 192.041794,1.000000 257.531342,0.999999 
z"/>
<path fill="#fcf3f3" opacity="1.000000" stroke="none" 
	d="
M513.000000,262.539368 
	C509.452850,267.713867 506.353943,272.862854 502.277100,277.062531 
	C488.351654,291.407562 474.137573,305.474518 459.932251,319.545258 
	C433.580139,345.647675 407.161316,371.682831 380.760284,397.735901 
	C370.363708,407.995422 357.309082,408.822784 347.668549,400.366974 
	C339.779053,393.447083 338.360199,378.271423 345.828674,370.747162 
	C369.773315,346.623718 393.808014,322.588959 417.923553,298.636292 
	C424.374969,292.228424 431.239105,286.236023 439.050323,279.000000 
	C436.045868,279.000000 434.369629,279.000000 432.693359,279.000000 
	C353.381287,279.000000 274.069153,279.050293 194.757202,278.945435 
	C182.933105,278.929810 174.079849,273.719299 171.566528,262.971283 
	C168.770859,251.015778 173.566055,238.508438 188.311600,236.039352 
	C192.000443,235.421677 195.777512,235.045044 199.514389,235.042328 
	C276.993591,234.986145 354.472839,235.000000 431.952057,235.000000 
	C433.766632,235.000000 435.581207,235.000000 438.000977,235.000000 
	C431.929138,228.799805 426.234314,222.934570 420.468628,217.139847 
	C419.337402,216.002975 417.807373,215.263809 416.671722,214.130371 
	C393.438568,190.943100 370.302551,167.658051 346.990784,144.550278 
	C338.993683,136.623138 338.340027,123.059845 346.418091,114.584106 
	C354.857300,105.729416 367.053040,105.545288 375.965729,112.522255 
	C379.582916,115.353851 382.965424,118.522118 386.224518,121.768311 
	C407.473999,142.933640 428.596039,164.227188 449.886322,185.351196 
	C468.883148,204.199692 488.115601,222.811264 507.039978,241.731476 
	C509.423248,244.114243 510.564636,247.739182 512.640747,250.894302 
	C513.000000,254.692917 513.000000,258.385834 513.000000,262.539368 
z"/>
<path fill="#fcf3f3" opacity="1.000000" stroke="none" 
	d="
M1.000003,462.468658 
	C2.368891,465.484955 3.684967,468.991699 5.115403,472.451233 
	C13.251040,492.127289 27.815538,504.669128 48.111370,510.502106 
	C52.441666,511.746643 57.152313,511.667755 61.843864,512.599304 
	C41.746414,513.000000 21.492826,513.000000 1.000000,513.000000 
	C1.000000,496.313202 1.000000,479.625244 1.000003,462.468658 
z"/>
<path fill="#fcf3f3" opacity="1.000000" stroke="none" 
	d="
M61.531342,1.000000 
	C58.793285,1.644987 55.585194,2.283240 52.380070,2.936023 
	C26.165688,8.275059 9.726158,23.972504 2.752119,49.728836 
	C2.639317,50.145432 2.085311,50.442570 1.368598,50.897728 
	C1.000000,34.399292 1.000000,17.798588 1.000000,1.000000 
	C21.020460,1.000000 41.041573,1.000000 61.531342,1.000000 
z"/>
</svg>