<svg width="100" height="100" viewBox="0 0 100 100" fill="none" xmlns="http://www.w3.org/2000/svg">
<path d="M45.4103 0.214844C27.9103 2.01172 12.9689 12.2656 5.29313 27.7539C2.87126 32.6172 1.44548 37.0898 0.547041 42.5977C-0.0193654 46.1328 -0.0584279 53.4375 0.449385 56.8359C1.8947 66.1523 5.56657 74.5898 11.2306 81.543C15.7033 87.0312 21.4455 91.6016 27.8322 94.7266C32.9103 97.2266 37.2658 98.6133 42.6759 99.4531C46.5822 100.059 53.4181 100.059 57.3244 99.4531C62.7541 98.6133 67.1291 97.207 72.1877 94.7266C77.2853 92.207 81.0353 89.5312 85.215 85.3906C89.3166 81.3477 92.2463 77.2461 94.8439 71.9727C97.2853 66.9922 98.672 62.5391 99.5509 56.8359C100.059 53.4375 100.02 46.1328 99.4533 42.5977C97.1486 28.3594 89.4142 16.2305 77.6564 8.37891C75.0783 6.66016 70.0392 4.10156 67.1681 3.04688C64.4533 2.05078 60.3713 1.01562 57.383 0.566406C54.3752 0.117188 48.1252 -0.078125 45.4103 0.214844ZM57.0314 8.94531C72.6955 11.7383 85.6252 23.2617 89.9611 38.3203C91.2306 42.7344 91.5041 44.8242 91.4845 50.0977C91.465 55.3516 91.2111 57.3047 89.9611 61.6211C86.0549 75.1367 75.1369 86.0547 61.6213 89.9609C57.2463 91.2305 55.3713 91.4844 50.0002 91.4844C44.6291 91.4844 42.7541 91.2305 38.3791 89.9609C24.8634 86.0547 13.9455 75.1367 10.0392 61.6211C8.7697 57.2461 8.51579 55.3711 8.51579 50C8.51579 45.957 8.59392 44.8633 8.94548 42.9688C10.547 34.2578 14.4728 26.7383 20.6056 20.6055C27.3244 13.8867 35.7814 9.78516 45.3127 8.61328C47.7931 8.30078 54.4533 8.49609 57.0314 8.94531Z" fill="#FCF3F3"/>
<path d="M43.1836 32.7539C42.832 32.9297 42.3633 33.3594 42.168 33.6719C41.8164 34.2578 41.7969 35 41.7969 50.0586C41.7969 64.3359 41.8359 65.9179 42.1094 66.4062C42.8516 67.6367 44.5117 67.9492 45.8008 67.0898C46.1914 66.8164 51.1133 63.2422 56.7383 59.1797C65.0781 53.125 67.0117 51.6211 67.2852 51.0547C67.6563 50.2929 67.5781 49.375 67.0898 48.6914C66.7383 48.1836 45.7422 32.8906 45.0195 32.6172C44.3164 32.3437 43.9648 32.3828 43.1836 32.7539Z" fill="#FCF3F3"/>
</svg>
