<?xml version="1.0" encoding="UTF-8"?>
<svg id="Camada_1" data-name="Camada 1" xmlns="http://www.w3.org/2000/svg" viewBox="0 0 85 67.03">
  <g id="PLAY">
    <path d="m38.52.89c-11.4,1.18-21.13,7.9-26.13,18.05-1.58,3.19-2.51,6.12-3.09,9.73-.37,2.32-.39,7.11-.06,9.33.94,6.11,3.33,11.64,7.02,16.2,2.91,3.6,6.65,6.59,10.81,8.64,3.31,1.64,6.14,2.55,9.67,3.1,2.54.4,7,.4,9.54,0,3.54-.55,6.39-1.47,9.68-3.1,3.32-1.65,5.76-3.41,8.48-6.12,2.67-2.65,4.58-5.34,6.27-8.8,1.59-3.26,2.49-6.18,3.07-9.92.33-2.23.31-7.02-.06-9.33-1.5-9.33-6.54-17.28-14.19-22.43-1.68-1.13-4.96-2.8-6.83-3.5-1.77-.65-4.43-1.33-6.37-1.63-1.96-.29-6.03-.42-7.8-.23Zm7.57,5.72c10.2,1.83,18.62,9.38,21.44,19.25.83,2.89,1,4.26.99,7.72-.01,3.44-.18,4.72-.99,7.55-2.54,8.86-9.65,16.02-18.46,18.58-2.85.83-4.07,1-7.57,1s-4.72-.17-7.57-1c-8.8-2.56-15.91-9.72-18.46-18.58-.83-2.87-.99-4.1-.99-7.62,0-2.65.05-3.37.28-4.61,1.04-5.71,3.6-10.64,7.59-14.66,4.38-4.4,9.88-7.09,16.09-7.86,1.62-.2,5.95-.08,7.63.22Z" style="fill: #fcf2f3; stroke-width: 0px;"/>
    <path d="m37.07,22.21c-.23.12-.53.4-.66.6-.23.38-.24.87-.24,10.74,0,9.36.03,10.4.2,10.72.48.81,1.56,1.01,2.4.45.25-.18,3.46-2.52,7.12-5.19,5.43-3.97,6.69-4.95,6.87-5.33.24-.5.19-1.1-.13-1.55-.23-.33-13.9-10.36-14.37-10.54-.46-.18-.69-.15-1.2.09Z" style="fill: #fcf2f3; stroke-width: 0px;"/>
  </g>
</svg>