<?xml version="1.0" encoding="UTF-8"?>
<!DOCTYPE svg PUBLIC "-//W3C//DTD SVG 1.1//EN" "http://www.w3.org/Graphics/SVG/1.1/DTD/svg11.dtd">
<svg xmlns="http://www.w3.org/2000/svg" version="1.1" width="512px" height="512px" style="shape-rendering:geometricPrecision; text-rendering:geometricPrecision; image-rendering:optimizeQuality; fill-rule:evenodd; clip-rule:evenodd" xmlns:xlink="http://www.w3.org/1999/xlink">
<g><path style="opacity:0.971" fill="#fcf3f3" d="M 174.5,95.5 C 228.834,95.3333 283.168,95.5 337.5,96C 392.112,104.292 430.945,133.459 454,183.5C 458.733,194.764 462.066,206.431 464,218.5C 468.672,255.211 473.672,291.878 479,328.5C 482.939,365.464 468.439,392.297 435.5,409C 406.886,420.244 380.219,416.91 355.5,399C 349.922,394.093 345.089,388.593 341,382.5C 330.244,361.989 319.744,341.323 309.5,320.5C 273.5,319.167 237.5,319.167 201.5,320.5C 192.333,338.833 183.167,357.167 174,375.5C 154.306,408.526 125.472,421.026 87.5,413C 45.4761,398.94 26.9761,369.773 32,325.5C 36.6798,287.741 42.0132,250.074 48,212.5C 60.1949,160.315 91.0283,124.148 140.5,104C 151.73,100.192 163.063,97.3591 174.5,95.5 Z M 188.5,127.5 C 237.184,127.071 285.85,127.571 334.5,129C 374.543,136.045 403.377,157.878 421,194.5C 423.935,201.638 426.268,208.971 428,216.5C 434.931,255.019 440.931,293.685 446,332.5C 447.701,362.812 433.368,379.812 403,383.5C 387.561,382.62 375.895,375.62 368,362.5C 356.667,339.833 345.333,317.167 334,294.5C 331.736,291.567 328.902,289.4 325.5,288C 278.833,287.333 232.167,287.333 185.5,288C 181.725,289.442 178.892,291.942 177,295.5C 165.333,318.833 153.667,342.167 142,365.5C 128.831,382.663 111.998,387.497 91.5,380C 74.2138,372.913 65.2138,360.08 64.5,341.5C 69.5207,297.334 75.6873,253.334 83,209.5C 95.0045,171.496 119.838,145.996 157.5,133C 167.789,130.064 178.123,128.231 188.5,127.5 Z"/></g>
<g><path style="opacity:0.98" fill="#fcf3f3" d="M 169.5,159.5 C 176.255,158.565 182.422,159.898 188,163.5C 189.439,165.275 190.439,167.275 191,169.5C 191.5,176.826 191.666,184.159 191.5,191.5C 199.917,191.094 208.251,191.594 216.5,193C 221.781,196.311 224.114,201.144 223.5,207.5C 224.114,213.856 221.781,218.689 216.5,222C 208.251,223.406 199.917,223.906 191.5,223.5C 191.906,231.917 191.406,240.251 190,248.5C 186.689,253.781 181.856,256.114 175.5,255.5C 169.144,256.114 164.311,253.781 161,248.5C 159.594,240.251 159.094,231.917 159.5,223.5C 151.083,223.906 142.749,223.406 134.5,222C 129.112,218.534 126.779,213.534 127.5,207C 126.924,200.819 129.257,196.152 134.5,193C 142.749,191.594 151.083,191.094 159.5,191.5C 159.334,183.826 159.5,176.159 160,168.5C 161.871,164.006 165.038,161.006 169.5,159.5 Z"/></g>
<g><path style="opacity:0.944" fill="#fcf3f3" d="M 329.5,159.5 C 346.655,157.154 353.822,164.488 351,181.5C 349.911,185.186 347.745,188.019 344.5,190C 325.568,194.963 317.402,187.796 320,168.5C 321.871,164.006 325.038,161.006 329.5,159.5 Z"/></g>
<g><path style="opacity:0.944" fill="#fcf3f3" d="M 297.5,191.5 C 314.655,189.154 321.822,196.488 319,213.5C 317.911,217.186 315.745,220.019 312.5,222C 293.568,226.963 285.402,219.796 288,200.5C 289.871,196.006 293.038,193.006 297.5,191.5 Z"/></g>
<g><path style="opacity:0.944" fill="#fcf3f3" d="M 361.5,191.5 C 378.655,189.154 385.822,196.488 383,213.5C 381.911,217.186 379.745,220.019 376.5,222C 357.568,226.963 349.402,219.796 352,200.5C 353.871,196.006 357.038,193.006 361.5,191.5 Z"/></g>
<g><path style="opacity:0.944" fill="#fcf3f3" d="M 329.5,223.5 C 346.655,221.154 353.822,228.488 351,245.5C 349.911,249.186 347.745,252.019 344.5,254C 325.568,258.963 317.402,251.796 320,232.5C 321.871,228.006 325.038,225.006 329.5,223.5 Z"/></g>
</svg>
