<?xml version="1.0" encoding="UTF-8"?>
<svg id="Camada_1" data-name="Camada 1" xmlns="http://www.w3.org/2000/svg" viewBox="0 0 500 500" fill="#fcf3f3">
  <path d="m161.34,84.77c59.54-.18,119.07,0,178.61.55,59.84,9.09,102.39,41.05,127.66,95.88,5.19,12.34,8.84,25.13,10.96,38.35,5.12,40.23,10.6,80.4,16.44,120.53,4.32,40.5-11.57,69.91-47.67,88.21-31.35,12.32-60.57,8.67-87.66-10.96-6.11-5.38-11.41-11.4-15.89-18.08-11.79-22.48-23.29-45.12-34.52-67.94-39.45-1.46-78.89-1.46-118.34,0-10.04,20.09-20.09,40.18-30.13,60.27-21.58,36.19-53.17,49.89-94.78,41.09C19.96,417.26-.31,385.3,5.19,336.79c5.13-41.37,10.97-82.65,17.53-123.82,13.36-57.18,47.15-96.81,101.36-118.89,12.31-4.17,24.72-7.28,37.26-9.31Zm15.34,35.06c53.35-.47,106.67.08,159.98,1.64,43.88,7.72,75.47,31.64,94.78,71.77,3.22,7.82,5.77,15.86,7.67,24.11,7.59,42.21,14.17,84.58,19.72,127.11,1.86,33.21-13.84,51.84-47.12,55.88-16.92-.96-29.7-8.63-38.35-23.01-12.42-24.84-24.84-49.67-37.26-74.51-2.48-3.21-5.59-5.59-9.31-7.12-51.14-.73-102.27-.73-153.41,0-4.14,1.58-7.24,4.32-9.31,8.22-12.78,25.57-25.57,51.14-38.35,76.7-14.43,18.81-32.87,24.1-55.34,15.89-18.94-7.77-28.8-21.83-29.59-42.19,5.5-48.4,12.26-96.61,20.27-144.64,13.15-41.64,40.37-69.59,81.63-83.83,11.27-3.22,22.6-5.23,33.97-6.03Z" style="fill-rule: evenodd; isolation: isolate; opacity: .97; stroke-width: 0px;"/>
  <path d="m375.45,112.74c-28.04-12.6-64.65-10.44-137.87-6.13-59.3,3.5-108.11,11.03-141.96,17.36-12.1,12.29-29.29,32.21-43.91,60.26-28.67,54.98-28.02,103.83-27.57,137.87.71,53.94,13.38,67.39,19.4,72.51,12.79,10.86,29.99,13.33,36.77,14.3,9.33,1.34,27.95,4.01,44.94-6.13,12.87-7.68,18.6-19,25.53-32.68,15.28-30.17,7.97-42.18,20.43-53.11,7.23-6.34,12.44-4.71,53.11-7.15,48.19-2.89,49.57-5.7,65.36-3.06,17.15,2.86,39.44,6.58,54.13,23.49,20.57,23.69,4.03,47.71,23.49,67.4,16.02,16.2,45.51,18.43,66.38,9.19,27.7-12.26,36.29-42.96,40.85-59.23,22.31-79.67-16.4-197.74-99.06-234.89Zm-168.09,110.63c-9.04,1.54-18.17,2.09-27.39,1.64.44,9.22-.1,18.36-1.64,27.39-3.63,5.79-8.92,8.34-15.89,7.67-6.96.67-12.26-1.88-15.89-7.67-1.54-9.04-2.09-18.17-1.64-27.39-9.22.44-18.35-.1-27.39-1.64-5.9-3.8-8.46-9.28-7.67-16.44-.63-6.77,1.93-11.89,7.67-15.34,9.04-1.54,18.17-2.09,27.39-1.64-.18-8.41,0-16.81.55-25.2,2.05-4.92,5.52-8.21,10.41-9.86,7.4-1.02,14.16.44,20.27,4.38,1.58,1.95,2.67,4.14,3.29,6.57.55,8.03.73,16.06.55,24.11,9.22-.44,18.36.1,27.39,1.64,5.79,3.63,8.34,8.92,7.67,15.89.67,6.96-1.88,12.26-7.67,15.89Zm113.41-58.62c2.05-4.92,5.52-8.21,10.41-9.86,18.8-2.57,26.65,5.47,23.56,24.11-1.19,4.04-3.57,7.14-7.12,9.31-20.74,5.44-29.69-2.42-26.85-23.56Zm-8.22,58.62c-20.74,5.44-29.69-2.42-26.85-23.56,2.05-4.92,5.52-8.21,10.41-9.86,18.8-2.57,26.65,5.47,23.56,24.11-1.19,4.04-3.57,7.14-7.12,9.31Zm42.19,25.75c-1.19,4.04-3.57,7.14-7.12,9.31-20.74,5.44-29.69-2.42-26.85-23.56,2.05-4.92,5.52-8.21,10.41-9.86,18.8-2.57,26.65,5.47,23.56,24.11Zm35.06-35.06c-1.19,4.04-3.57,7.14-7.12,9.31-20.74,5.44-29.69-2.42-26.85-23.56,2.05-4.92,5.52-8.21,10.41-9.86,18.8-2.57,26.65,5.47,23.56,24.11Z" style="fill-rule: evenodd; stroke-width: 0px;"/>
</svg>