<svg width="191" height="191" viewBox="0 0 191 191" fill="none" xmlns="http://www.w3.org/2000/svg">
<g clip-path="url(#clip0_431_633)">
<path d="M56.4724 12.7656C61.0819 11.0291 65.4885 9.10217 70.0697 7.77956C74.5611 6.48285 79.1911 5.4334 83.8309 4.94145C89.7583 4.313 95.7645 4.04547 101.721 4.20371C106.237 4.32366 110.779 5.10716 115.218 6.03084C123.458 7.74515 131.332 10.633 138.778 14.5683C144.38 17.529 149.666 21.0027 154.444 25.1962C156.886 27.3394 159.436 29.3874 161.675 31.729C167.215 37.523 172.05 43.8652 176.015 50.8648C180.204 58.2583 183.248 66.1093 185.218 74.3354C186.243 78.6145 186.84 83.0323 187.207 87.4228C187.607 92.2182 187.806 97.0693 187.559 101.869C187.328 106.329 186.611 110.796 185.724 115.183C184.053 123.439 181.078 131.276 177.182 138.735C174.22 144.406 170.701 149.731 166.457 154.545C164.308 156.982 162.277 159.55 159.924 161.774C154.239 167.147 148.044 171.842 141.239 175.781C133.704 180.144 125.657 183.157 117.29 185.265C112.968 186.355 108.457 186.814 104 187.216C99.8248 187.592 95.5915 187.815 91.4161 187.566C86.4584 187.269 81.477 186.685 76.6099 185.707C68.4147 184.061 60.6084 181.145 53.198 177.256C47.4791 174.255 42.0814 170.75 37.218 166.472C34.7773 164.325 32.2102 162.291 29.9848 159.937C24.6114 154.253 19.9136 148.06 15.9763 141.254C11.6132 133.713 8.63905 125.646 6.47812 117.29C5.39343 113.095 4.91095 108.71 4.53412 104.378C4.14941 99.9549 3.93259 95.4752 4.183 91.051C4.4565 86.2186 5.06647 81.3633 6.03642 76.6217C7.71091 68.4358 10.5682 60.613 14.4767 53.2077C17.4924 47.4941 20.9584 42.0722 25.2643 37.2256C27.4636 34.7501 29.536 32.1368 31.9304 29.8648C37.6524 24.4354 43.8463 19.5948 50.804 15.8043C52.6437 14.8021 54.4982 13.8272 56.4724 12.7656ZM105.365 175.332C106.978 175.083 108.596 174.862 110.203 174.581C116.543 173.473 122.66 171.561 128.494 168.901C136.387 165.302 143.676 160.697 149.936 154.626C152.469 152.17 155.053 149.705 157.191 146.919C160.332 142.827 163.387 138.612 165.951 134.147C170.399 126.405 173.466 118.086 174.607 109.163C175.177 104.703 175.959 100.221 175.95 95.7495C175.941 91.2168 175.118 86.6809 174.577 82.1553C173.787 75.5483 171.611 69.3078 168.913 63.3046C164.644 53.8067 158.707 45.4492 151.128 38.2111C146.22 33.5235 140.918 29.4216 135.026 26.1486C122.3 19.0793 108.683 15.3478 94.0292 16.0681C90.0772 16.2624 86.1329 16.7141 82.2001 17.1758C75.5304 17.9588 69.2377 20.1497 63.1806 22.9046C56.4227 25.9782 50.0993 29.7935 44.4763 34.7486C38.9755 39.5959 33.9373 44.81 29.8098 50.893C25.0291 57.9387 21.4834 65.5451 19.0094 73.6861C16.8053 80.9388 16.0644 88.4047 15.7303 95.9093C15.6039 98.7482 16.1592 101.618 16.4148 104.473C16.9323 110.253 18.2836 115.833 20.109 121.345C23.4447 131.417 28.6389 140.432 35.6127 148.337C39.0782 152.265 43.0405 155.823 47.1228 159.122C53.5012 164.277 60.662 168.15 68.4254 170.914C73.7053 172.793 79.0249 174.411 84.6242 174.965C88.3804 175.337 92.1314 175.915 95.8947 176.011C98.9294 176.088 101.979 175.58 105.365 175.332Z" fill="#ED2E2F"/>
<path d="M116.116 118.521C111.246 115.734 106.119 113.913 100.709 113.487C94.1863 112.973 87.6539 113.301 81.4184 115.762C72.7825 119.172 65.8258 124.669 61.2603 132.767C59.0896 136.617 53.1101 137.577 50.6348 133.244C49.4824 131.226 49.4864 128.947 50.6945 127.183C53.3899 123.248 56.1124 119.231 59.434 115.846C65.6574 109.504 73.3522 105.344 81.9276 103.065C87.8701 101.487 94.0223 101.054 100.153 101.506C110.013 102.234 119.078 105.447 127.065 111.294C132.907 115.571 137.574 121.017 141.243 127.267C142.811 129.938 141.595 133.862 138.854 135.511C136.329 137.031 132.769 136.209 131.14 133.528C128.936 129.9 126.411 126.539 123.181 123.795C120.983 121.926 118.552 120.331 116.116 118.521Z" fill="#ED2E2F"/>
<path d="M61.1175 82.9446C53.6882 78.2551 53.5687 67.182 61.454 62.7705C69.4783 58.2813 78.6335 64.1671 78.7775 72.6656C78.8952 79.6121 74.0131 84.1395 67.7931 84.5713C65.6446 84.7205 63.4075 83.5945 61.1175 82.9446Z" fill="#ED2E2F"/>
<path d="M120.911 83.949C112.663 81.3448 111.103 72.0157 114.903 66.3483C117.039 63.161 122.336 60.5833 125.401 61.1802C130.646 62.2014 134.438 64.7357 135.822 70.2795C137.413 76.646 133.17 83.9125 125.318 84.6293C123.932 84.7558 122.484 84.201 120.911 83.949Z" fill="#ED2E2F"/>
</g>
<defs>
<clipPath id="clip0_431_633">
<rect width="191" height="191" fill="white"/>
</clipPath>
</defs>
</svg>
