<?xml version="1.0" encoding="UTF-8"?>
<svg id="Camada_1" data-name="Camada 1" xmlns="http://www.w3.org/2000/svg" viewBox="0 0 85 67.03" fill="ed2e2f">
  <g id="sadFace">
    <path d="m29.02,5.05c1.58-.59,3.09-1.25,4.65-1.71,1.54-.44,3.12-.8,4.71-.97,2.03-.22,4.08-.31,6.12-.25,1.55.04,3.1.31,4.62.63,2.82.59,5.51,1.58,8.06,2.92,1.92,1.01,3.73,2.2,5.36,3.64.84.73,1.71,1.43,2.47,2.24,1.9,1.98,3.55,4.15,4.91,6.55,1.43,2.53,2.48,5.22,3.15,8.03.35,1.46.56,2.98.68,4.48.14,1.64.21,3.3.12,4.94-.08,1.53-.32,3.06-.63,4.56-.57,2.83-1.59,5.51-2.92,8.06-1.01,1.94-2.22,3.76-3.67,5.41-.74.83-1.43,1.71-2.24,2.47-1.95,1.84-4.07,3.45-6.39,4.79-2.58,1.49-5.33,2.52-8.2,3.25-1.48.37-3.02.53-4.55.67-1.43.13-2.88.21-4.31.12-1.7-.1-3.4-.3-5.07-.64-2.8-.56-5.48-1.56-8.01-2.89-1.96-1.03-3.8-2.23-5.47-3.69-.84-.73-1.71-1.43-2.48-2.24-1.84-1.95-3.45-4.06-4.79-6.39-1.49-2.58-2.51-5.34-3.25-8.2-.37-1.44-.54-2.94-.67-4.42-.13-1.51-.21-3.05-.12-4.56.09-1.65.3-3.32.63-4.94.57-2.8,1.55-5.48,2.89-8.01,1.03-1.96,2.22-3.81,3.69-5.47.75-.85,1.46-1.74,2.28-2.52,1.96-1.86,4.08-3.51,6.46-4.81.63-.34,1.26-.68,1.94-1.04m16.73,55.64c.55-.09,1.11-.16,1.66-.26,2.17-.38,4.26-1.03,6.26-1.94,2.7-1.23,5.2-2.81,7.34-4.89.87-.84,1.75-1.68,2.48-2.64,1.07-1.4,2.12-2.84,3-4.37,1.52-2.65,2.57-5.5,2.96-8.55.2-1.53.46-3.06.46-4.59,0-1.55-.28-3.1-.47-4.65-.27-2.26-1.01-4.4-1.94-6.45-1.46-3.25-3.49-6.11-6.09-8.59-1.68-1.6-3.49-3.01-5.51-4.13-4.36-2.42-9.02-3.7-14.03-3.45-1.35.07-2.7.22-4.05.38-2.28.27-4.44,1.02-6.51,1.96-2.31,1.05-4.48,2.36-6.4,4.05-1.88,1.66-3.61,3.44-5.02,5.53-1.64,2.41-2.85,5.01-3.7,7.8-.75,2.48-1.01,5.04-1.12,7.61-.04.97.15,1.95.23,2.93.18,1.98.64,3.89,1.26,5.77,1.14,3.45,2.92,6.53,5.31,9.24,1.19,1.34,2.54,2.56,3.94,3.69,2.18,1.76,4.63,3.09,7.29,4.04,1.81.64,3.63,1.2,5.54,1.39,1.29.13,2.57.33,3.86.36,1.04.03,2.08-.15,3.24-.23Z" style="fill: #ed2e2f; stroke-width: 0px;"/>
    <path d="m49.43,41.25c-1.67-.95-3.42-1.58-5.27-1.72-2.23-.18-4.47-.06-6.6.78-2.96,1.17-5.34,3.05-6.9,5.82-.74,1.32-2.79,1.65-3.64.16-.39-.69-.39-1.47.02-2.07.92-1.35,1.85-2.72,2.99-3.88,2.13-2.17,4.76-3.59,7.7-4.37,2.03-.54,4.14-.69,6.24-.53,3.37.25,6.48,1.35,9.21,3.35,2,1.46,3.6,3.33,4.85,5.47.54.91.12,2.26-.82,2.82-.86.52-2.08.24-2.64-.68-.75-1.24-1.62-2.39-2.72-3.33-.75-.64-1.58-1.19-2.42-1.8Z" style="fill: #ed2e2f; stroke-width: 0px;"/>
    <path d="m30.61,29.07c-2.54-1.6-2.58-5.39.12-6.9,2.75-1.54,5.88.48,5.93,3.39.04,2.38-1.63,3.93-3.76,4.07-.74.05-1.5-.33-2.28-.56Z" style="fill: #ed2e2f; stroke-width: 0px;"/>
    <path d="m51.07,29.42c-2.82-.89-3.36-4.08-2.06-6.02.73-1.09,2.54-1.97,3.59-1.77,1.8.35,3.09,1.22,3.57,3.11.54,2.18-.91,4.67-3.6,4.91-.47.04-.97-.15-1.51-.23Z" style="fill: #ed2e2f; stroke-width: 0px;"/>
  </g>
</svg>