<svg width="201" height="55" viewBox="0 0 201 55" fill="none" xmlns="http://www.w3.org/2000/svg">
<path d="M3 29.6778C1.66666 28.908 1.66667 26.9835 3 26.2137L19.4186 16.7344C20.7519 15.9646 22.4186 16.9269 22.4186 18.4665L22.4186 37.425C22.4186 38.9646 20.7519 39.9269 19.4186 39.1571L3 29.6778Z" fill="#F8E2D6"/>
<rect x="20" width="181" height="55" rx="15" fill="#F8E2D6"/>
<path d="M77.1354 37.25C76.2521 37.25 75.4188 37.125 74.6354 36.875C73.8521 36.625 73.1354 36.25 72.4854 35.75C71.8354 35.25 71.2604 34.6333 70.7604 33.9L72.1104 32.4C72.8938 33.5167 73.6938 34.3 74.5104 34.75C75.3438 35.2 76.2771 35.425 77.3104 35.425C78.0604 35.425 78.7438 35.3 79.3604 35.05C79.9771 34.8 80.4604 34.45 80.8104 34C81.1604 33.55 81.3354 33.0333 81.3354 32.45C81.3354 32.0667 81.2688 31.725 81.1354 31.425C81.0188 31.125 80.8354 30.8583 80.5854 30.625C80.3354 30.3917 80.0271 30.1833 79.6604 30C79.2938 29.8167 78.8688 29.65 78.3854 29.5C77.9188 29.35 77.3938 29.2 76.8104 29.05C75.9604 28.85 75.2104 28.6167 74.5604 28.35C73.9271 28.0667 73.3854 27.725 72.9354 27.325C72.5021 26.925 72.1688 26.4667 71.9354 25.95C71.7188 25.4167 71.6104 24.7917 71.6104 24.075C71.6104 23.3917 71.7521 22.7583 72.0354 22.175C72.3354 21.5917 72.7438 21.0917 73.2604 20.675C73.7771 20.2417 74.3854 19.9083 75.0854 19.675C75.7854 19.4417 76.5354 19.325 77.3354 19.325C78.2354 19.325 79.0354 19.45 79.7354 19.7C80.4521 19.9333 81.0854 20.2833 81.6354 20.75C82.1855 21.2167 82.6605 21.775 83.0604 22.425L81.6854 23.775C81.3354 23.225 80.9354 22.75 80.4854 22.35C80.0521 21.95 79.5688 21.65 79.0354 21.45C78.5188 21.2333 77.9438 21.125 77.3104 21.125C76.5771 21.125 75.9271 21.25 75.3604 21.5C74.8104 21.75 74.3771 22.1 74.0604 22.55C73.7438 22.9833 73.5854 23.4833 73.5854 24.05C73.5854 24.4667 73.6604 24.8417 73.8104 25.175C73.9604 25.4917 74.1938 25.775 74.5104 26.025C74.8438 26.2583 75.2688 26.475 75.7854 26.675C76.3188 26.8583 76.9521 27.0333 77.6854 27.2C78.5521 27.4 79.3271 27.6417 80.0104 27.925C80.7104 28.2083 81.3021 28.55 81.7854 28.95C82.2854 29.3333 82.6604 29.7833 82.9105 30.3C83.1771 30.8167 83.3104 31.4083 83.3104 32.075C83.3104 33.1083 83.0521 34.0167 82.5354 34.8C82.0188 35.5667 81.2938 36.1667 80.3604 36.6C79.4438 37.0333 78.3688 37.25 77.1354 37.25ZM92.2454 37.25C90.9454 37.25 89.7871 36.9667 88.7704 36.4C87.7704 35.8333 86.9871 35.0417 86.4204 34.025C85.8537 33.0083 85.5704 31.8417 85.5704 30.525C85.5704 29.5083 85.7287 28.5917 86.0454 27.775C86.3621 26.9417 86.8037 26.2167 87.3704 25.6C87.9537 24.9833 88.6454 24.5083 89.4454 24.175C90.2454 23.825 91.1121 23.65 92.0454 23.65C92.9287 23.65 93.7287 23.8083 94.4454 24.125C95.1787 24.4417 95.8037 24.8833 96.3204 25.45C96.8537 26 97.2537 26.6583 97.5204 27.425C97.7871 28.1917 97.9037 29.0333 97.8704 29.95L97.8454 30.825H86.9704L86.6954 29.25H96.4204L95.9704 29.675V29.075C95.9371 28.475 95.7621 27.9 95.4454 27.35C95.1287 26.7833 94.6787 26.325 94.0954 25.975C93.5287 25.625 92.8454 25.45 92.0454 25.45C91.1121 25.45 90.3037 25.6417 89.6204 26.025C88.9371 26.3917 88.4121 26.9417 88.0454 27.675C87.6787 28.4083 87.4954 29.3167 87.4954 30.4C87.4954 31.4333 87.6954 32.3333 88.0954 33.1C88.4954 33.85 89.0621 34.4333 89.7954 34.85C90.5454 35.2667 91.4454 35.475 92.4954 35.475C93.1121 35.475 93.7204 35.375 94.3204 35.175C94.9371 34.9583 95.6121 34.5417 96.3454 33.925L97.3204 35.275C96.9371 35.6583 96.4787 36 95.9454 36.3C95.4121 36.5833 94.8287 36.8167 94.1954 37C93.5621 37.1667 92.9121 37.25 92.2454 37.25ZM105.633 37.25C104.5 37.25 103.475 36.9583 102.558 36.375C101.642 35.775 100.917 34.9667 100.383 33.95C99.8502 32.9167 99.5835 31.75 99.5835 30.45C99.5835 29.1333 99.8585 27.9667 100.408 26.95C100.958 25.9333 101.692 25.1333 102.608 24.55C103.542 23.9667 104.583 23.675 105.733 23.675C106.417 23.675 107.05 23.775 107.633 23.975C108.217 24.175 108.733 24.4583 109.183 24.825C109.65 25.175 110.033 25.5917 110.333 26.075C110.65 26.5417 110.867 27.05 110.983 27.6L110.433 27.325L110.508 23.95H112.383V37H110.483V33.8L110.983 33.475C110.867 33.975 110.642 34.4583 110.308 34.925C109.975 35.375 109.567 35.775 109.083 36.125C108.617 36.475 108.083 36.75 107.483 36.95C106.9 37.15 106.283 37.25 105.633 37.25ZM106.058 35.45C106.925 35.45 107.7 35.2417 108.383 34.825C109.067 34.3917 109.6 33.8 109.983 33.05C110.383 32.2833 110.583 31.4167 110.583 30.45C110.583 29.4833 110.383 28.625 109.983 27.875C109.6 27.125 109.067 26.5333 108.383 26.1C107.7 25.6667 106.925 25.45 106.058 25.45C105.175 25.45 104.392 25.6667 103.708 26.1C103.042 26.5333 102.508 27.125 102.108 27.875C101.725 28.625 101.533 29.4833 101.533 30.45C101.533 31.4 101.725 32.2583 102.108 33.025C102.492 33.775 103.025 34.3667 103.708 34.8C104.392 35.2333 105.175 35.45 106.058 35.45ZM116.036 37V23.95H117.911L117.961 27.425L117.761 26.95C117.945 26.3667 118.236 25.825 118.636 25.325C119.053 24.825 119.545 24.425 120.111 24.125C120.678 23.825 121.303 23.675 121.986 23.675C122.27 23.675 122.536 23.7 122.786 23.75C123.036 23.7833 123.245 23.8333 123.411 23.9L122.886 26C122.67 25.9 122.445 25.8333 122.211 25.8C121.995 25.75 121.786 25.725 121.586 25.725C121.02 25.725 120.511 25.825 120.061 26.025C119.611 26.225 119.228 26.5083 118.911 26.875C118.595 27.225 118.353 27.6333 118.186 28.1C118.02 28.5667 117.936 29.0667 117.936 29.6V37H116.036ZM130.301 37.25C129.068 37.25 127.968 36.9583 127.001 36.375C126.034 35.775 125.268 34.9667 124.701 33.95C124.151 32.9167 123.876 31.75 123.876 30.45C123.876 29.15 124.151 27.9917 124.701 26.975C125.268 25.9417 126.034 25.1333 127.001 24.55C127.968 23.9667 129.076 23.675 130.326 23.675C131.443 23.675 132.459 23.9 133.376 24.35C134.293 24.7833 135.026 25.3917 135.576 26.175L134.476 27.525C134.159 27.1083 133.776 26.7417 133.326 26.425C132.893 26.1083 132.418 25.8667 131.901 25.7C131.401 25.5167 130.901 25.425 130.401 25.425C129.518 25.425 128.726 25.65 128.026 26.1C127.326 26.5333 126.768 27.125 126.351 27.875C125.951 28.625 125.751 29.4833 125.751 30.45C125.751 31.4167 125.951 32.2833 126.351 33.05C126.768 33.8 127.326 34.3917 128.026 34.825C128.726 35.2583 129.509 35.475 130.376 35.475C130.876 35.475 131.368 35.4 131.851 35.25C132.334 35.0833 132.793 34.85 133.226 34.55C133.659 34.25 134.059 33.875 134.426 33.425L135.526 34.775C134.959 35.525 134.201 36.125 133.251 36.575C132.301 37.025 131.318 37.25 130.301 37.25ZM137.96 37V18.5H139.835V26.8L139.46 27.175C139.644 26.4917 139.985 25.8917 140.485 25.375C140.985 24.8417 141.569 24.425 142.235 24.125C142.919 23.825 143.61 23.675 144.31 23.675C145.31 23.675 146.144 23.8667 146.81 24.25C147.477 24.6333 147.969 25.225 148.285 26.025C148.619 26.825 148.785 27.8417 148.785 29.075V37H146.885V29.175C146.885 28.3083 146.769 27.6 146.535 27.05C146.319 26.4833 145.977 26.0667 145.51 25.8C145.044 25.5333 144.46 25.4083 143.76 25.425C143.21 25.425 142.694 25.525 142.21 25.725C141.727 25.9083 141.31 26.1667 140.96 26.5C140.61 26.8333 140.335 27.2167 140.135 27.65C139.935 28.0833 139.835 28.55 139.835 29.05V37H138.91C138.794 37 138.66 37 138.51 37C138.36 37 138.177 37 137.96 37Z" fill="#F16A64"/>
</svg>
