<?xml version="1.0" encoding="UTF-8"?>
<svg id="Camada_1" data-name="Camada 1" xmlns="http://www.w3.org/2000/svg" viewBox="0 0 500 500">
  <path fill="#fcf3f3" d="m349.23,371.77c-36.98,29.96-84.6,48.04-136.52,48.04C95.28,419.81-.02,327.55-.02,213.89S95.28,7.97,212.71,7.97s212.7,92.26,212.7,205.92c0,50.29-18.67,96.43-49.63,132.17l118.73,114.96c3.65,3.53,5.47,8.18,5.47,12.85,0,14.21-13.43,18.15-18.75,18.15-4.8,0-9.6-1.77-13.28-5.32l-118.73-114.94ZM212.71,44.3c-96.7,0-175.17,76-175.17,169.59s78.47,169.59,175.17,169.59,175.17-76,175.17-169.59S309.36,44.3,212.71,44.3Z" style="stroke-width: 0px;"/>
  <circle cx="212.71" cy="213.89" r="190.76" style="stroke-width: 0px;" fill="#fcf3f3"/>
</svg>