<?xml version="1.0" encoding="UTF-8"?>
<svg id="Camada_1" data-name="Camada 1" xmlns="http://www.w3.org/2000/svg" viewBox="0 0 85 65.44">
  <path id="USER" d="m69.83,62.92h-4.71c0-7.81.28-8.93-4.16-10.03-6.79-1.67-13.21-3.25-15.55-8.7-.85-1.99-1.42-5.27.73-9.6,4.82-9.71,6.03-18.03,3.32-22.84-3.17-5.61-12.78-5.64-15.99.09-2.72,4.87-1.49,13.15,3.37,22.71,2.2,4.31,1.64,7.6.79,9.6-2.31,5.48-8.67,7.05-15.4,8.7-4.64,1.14-4.34,2.19-4.34,10.08h-4.7v-3.14c0-6.34.46-9.99,7.49-11.72,7.94-1.96,15.79-3.7,12.02-11.12C21.52,14.97,29.5,2.52,41.5,2.52s19.96,11.99,8.82,34.42c-3.66,7.37,3.89,9.12,12.02,11.12,7.04,1.73,7.5,5.4,7.5,11.74v3.12Z" style="fill: #fcf2f3; stroke-width: 0px;"/>
</svg>