<svg width="22" height="22" viewBox="0 0 22 22" fill="none" xmlns="http://www.w3.org/2000/svg">
<path d="M16.6623 0.0763525C16.4547 0.123813 16.0929 0.242465 15.8615 0.349252C15.4403 0.539095 15.3039 0.669613 8.06079 7.90145C1.94479 14.012 0.663453 15.3172 0.54481 15.5723C0.366847 15.9401 0.331255 16.2071 0.123631 18.5267C-0.0246719 20.2116 -0.030604 20.3303 0.0583776 20.6387C0.254137 21.2973 0.865144 21.76 1.54734 21.76C2.23546 21.76 5.64049 21.41 5.90744 21.321C6.04981 21.2676 6.26336 21.1667 6.382 21.0956C6.63709 20.9472 20.4886 7.13022 20.9453 6.57255C21.5385 5.84877 21.7758 5.20212 21.7699 4.31816C21.764 3.62405 21.586 3.01299 21.2182 2.44939C21.0818 2.24175 20.6309 1.73748 20.2157 1.33406C19.5869 0.723006 19.3793 0.556893 19.0055 0.378915C18.2581 0.0170265 17.4276 -0.0897603 16.6623 0.0763525ZM18.1098 2.03411C18.5132 2.23582 19.5691 3.30962 19.747 3.70117C19.925 4.08679 19.925 4.61479 19.747 4.97668C19.6759 5.125 19.3437 5.51062 18.964 5.8903L18.3115 6.54289L16.7573 4.98261L15.1971 3.42827L15.82 2.80535C16.5734 2.05191 16.8581 1.8858 17.4217 1.8858C17.7183 1.8858 17.8844 1.92139 18.1098 2.03411ZM11.1455 13.7095L5.33795 19.5175L3.6651 19.6717C2.75155 19.7548 1.98038 19.8023 1.95665 19.7845C1.93886 19.7607 1.98631 18.9895 2.06936 18.0759L2.2236 16.4029L8.03113 10.5949L13.8327 4.79277L15.3869 6.34711L16.9471 7.90739L11.1455 13.7095Z" fill="#ED2E2F"/>
</svg>
