<svg width="46" height="43" viewBox="0 0 46 43" fill="none" xmlns="http://www.w3.org/2000/svg">
<g clip-path="url(#clip0_449_582)">
<path d="M11.9563 0.417339C6.33032 1.02075 1.45149 5.62864 0.209285 11.5074C-0.0697618 12.8513 -0.0697618 15.2467 0.209285 16.5724C0.632357 18.5563 1.53251 20.5586 2.74771 22.1859C3.20679 22.8076 6.39333 26.2636 11.9653 32.188C16.6551 37.1707 20.6157 41.358 20.7778 41.5043C21.2098 41.8883 22.047 42.2632 22.6411 42.3363C23.2622 42.4094 24.1083 42.2175 24.6934 41.87C25.1975 41.5683 42.1834 23.5482 43.0025 22.4419C44.4607 20.4854 45.3969 18.4009 45.838 16.1792C46.054 15.073 46.054 12.6593 45.838 11.5714C44.7848 6.19548 40.5811 1.90759 35.1442 0.673332C34.343 0.490479 33.956 0.463051 32.5427 0.463051C30.7694 0.463051 30.0943 0.563622 28.6811 1.02075C27.6099 1.36817 25.7466 2.35558 24.8554 3.04128C23.5502 4.05611 23.3612 4.16582 22.9471 4.16582C22.6681 4.16582 22.47 4.09268 22.164 3.86411C21.9389 3.70869 21.4439 3.33384 21.0568 3.05042C18.2753 1.00247 15.0888 0.0882034 11.9563 0.417339Z" fill="#ED2E2F"/>
</g>
<defs>
<clipPath id="clip0_449_582">
<rect width="46" height="43" fill="white"/>
</clipPath>
</defs>
</svg>
