<svg width="63" height="85" viewBox="0 0 63 85" fill="none" xmlns="http://www.w3.org/2000/svg">
<path d="M22.919 54.1982C24.2516 51.89 27.203 51.0992 29.5112 52.4318C31.8193 53.7644 32.6101 56.7158 31.2775 59.024L21.4372 76.0679C19.4686 79.4776 14.4654 79.222 12.8545 75.6295C12.2207 74.2158 12.3041 72.5838 13.0787 71.2422L22.919 54.1982Z" fill="#418ED6"/>
<path d="M22.919 54.1982C24.2516 51.89 23.4608 48.9386 21.1527 47.606C18.8445 46.2734 15.8931 47.0643 14.5605 49.3724L4.72017 66.4164C2.75158 69.8261 5.47455 74.0312 9.39122 73.6299C10.9324 73.472 12.3041 72.5838 13.0787 71.2422L22.919 54.1982Z" fill="#2B63A6"/>
<path d="M39.6696 54.1982C38.337 51.89 35.3856 51.0992 33.0775 52.4318C30.7693 53.7644 29.9785 56.7158 31.3111 59.024L41.1515 76.0679C43.12 79.4776 48.1232 79.222 49.7341 75.6295C50.3679 74.2158 50.2846 72.5838 49.51 71.2422L39.6696 54.1982Z" fill="#2B63A6"/>
<path d="M39.6696 54.1982C38.337 51.89 39.1278 48.9386 41.436 47.606C43.7441 46.2734 46.6955 47.0643 48.0281 49.3724L57.8685 66.4164C59.837 69.8261 57.1141 74.0312 53.1974 73.6299C51.6562 73.472 50.2846 72.5838 49.51 71.2422L39.6696 54.1982Z" fill="#418ED6"/>
<circle cx="31.2808" cy="29.7767" r="29.2767" fill="#E3E3E3" stroke="#404040"/>
<circle cx="31.2808" cy="29.7767" r="22.4628" fill="#595959"/>
<mask id="mask0_104_219" style="mask-type:alpha" maskUnits="userSpaceOnUse" x="9" y="9" width="46" height="46">
<circle cx="32.4799" cy="32.1748" r="22.5151" fill="#C28B37"/>
</mask>
<g mask="url(#mask0_104_219)">
<circle cx="31.281" cy="29.7767" r="22.5151" fill="url(#paint0_linear_104_219)"/>
</g>
<path d="M27.5707 21.7765C29.1494 18.6191 33.6551 18.6191 35.2338 21.7765L35.2988 21.9065C35.8987 23.1064 37.0586 23.927 38.3897 24.0934C41.5981 24.4944 43.0385 28.3316 40.8865 30.7448L40.646 31.0144C39.7969 31.9666 39.4264 33.2529 39.6389 34.5109L39.6733 34.7143C40.2728 38.2633 36.5862 40.9895 33.367 39.3799C32.1305 38.7617 30.6746 38.7614 29.4381 39.3796C26.2209 40.9882 22.54 38.2591 23.1443 34.7133L23.178 34.5156C23.3929 33.2551 23.0215 31.9654 22.1693 31.0121L21.9266 30.7405C19.7726 28.331 21.2103 24.4939 24.4172 24.0931C25.7468 23.9269 26.9054 23.1072 27.5046 21.9087L27.5707 21.7765Z" fill="url(#paint1_linear_104_219)"/>
<defs>
<linearGradient id="paint0_linear_104_219" x1="31.281" y1="7.2616" x2="31.281" y2="52.2918" gradientUnits="userSpaceOnUse">
<stop stop-color="#9CA1A3"/>
<stop offset="1" stop-color="#9CA1A3" stop-opacity="0"/>
</linearGradient>
<linearGradient id="paint1_linear_104_219" x1="31.4023" y1="14.1134" x2="31.4023" y2="43.2543" gradientUnits="userSpaceOnUse">
<stop stop-color="#F1F5F5"/>
<stop offset="0.0001" stop-color="white"/>
<stop offset="1" stop-color="#F1F5F5"/>
</linearGradient>
</defs>
</svg>
