<svg width="201" height="55" viewBox="0 0 201 55" fill="none" xmlns="http://www.w3.org/2000/svg">
<path d="M3 29.6778C1.66666 28.908 1.66667 26.9835 3 26.2137L19.4186 16.7344C20.7519 15.9646 22.4186 16.9269 22.4186 18.4665L22.4186 37.425C22.4186 38.9646 20.7519 39.9269 19.4186 39.1571L3 29.6778Z" fill="#F8E2D6"/>
<rect x="20" width="181" height="55" rx="15" fill="#F8E2D6"/>
<path d="M67.0413 37.25C65.7913 37.25 64.6413 37.0333 63.5913 36.6C62.5413 36.15 61.633 35.525 60.8663 34.725C60.0996 33.9083 59.4996 32.95 59.0663 31.85C58.6496 30.75 58.4413 29.55 58.4413 28.25C58.4413 26.9667 58.6496 25.7917 59.0663 24.725C59.4996 23.6417 60.108 22.7 60.8913 21.9C61.6746 21.0833 62.583 20.4583 63.6163 20.025C64.6496 19.5917 65.783 19.375 67.0163 19.375C67.833 19.375 68.6413 19.5083 69.4413 19.775C70.2413 20.025 70.9746 20.375 71.6413 20.825C72.3246 21.275 72.883 21.7917 73.3163 22.375L71.9663 23.775C71.5496 23.275 71.0663 22.8417 70.5163 22.475C69.983 22.1083 69.4163 21.825 68.8163 21.625C68.2163 21.425 67.6163 21.325 67.0163 21.325C66.083 21.325 65.208 21.5 64.3913 21.85C63.5913 22.1833 62.8996 22.6583 62.3163 23.275C61.733 23.8917 61.2746 24.625 60.9413 25.475C60.6246 26.325 60.4663 27.25 60.4663 28.25C60.4663 29.2833 60.6246 30.2333 60.9413 31.1C61.2746 31.9667 61.7413 32.7167 62.3413 33.35C62.958 33.9667 63.6746 34.45 64.4913 34.8C65.3246 35.1333 66.2496 35.3 67.2663 35.3C67.8663 35.3 68.4663 35.2167 69.0663 35.05C69.6663 34.8667 70.2163 34.6167 70.7163 34.3C71.2163 33.9833 71.6413 33.625 71.9913 33.225L72.9913 34.85C72.608 35.3167 72.0913 35.7333 71.4413 36.1C70.808 36.45 70.108 36.7333 69.3413 36.95C68.5746 37.15 67.808 37.25 67.0413 37.25ZM81.0358 37.25C79.9025 37.25 78.8775 36.9583 77.9608 36.375C77.0442 35.775 76.3192 34.9667 75.7858 33.95C75.2525 32.9167 74.9858 31.75 74.9858 30.45C74.9858 29.1333 75.2608 27.9667 75.8108 26.95C76.3608 25.9333 77.0942 25.1333 78.0108 24.55C78.9442 23.9667 79.9858 23.675 81.1358 23.675C81.8192 23.675 82.4525 23.775 83.0358 23.975C83.6192 24.175 84.1358 24.4583 84.5858 24.825C85.0525 25.175 85.4358 25.5917 85.7358 26.075C86.0525 26.5417 86.2692 27.05 86.3858 27.6L85.8358 27.325L85.9108 23.95H87.7858V37H85.8858V33.8L86.3858 33.475C86.2692 33.975 86.0442 34.4583 85.7108 34.925C85.3775 35.375 84.9692 35.775 84.4858 36.125C84.0192 36.475 83.4858 36.75 82.8858 36.95C82.3025 37.15 81.6858 37.25 81.0358 37.25ZM81.4608 35.45C82.3275 35.45 83.1025 35.2417 83.7858 34.825C84.4692 34.3917 85.0025 33.8 85.3858 33.05C85.7858 32.2833 85.9858 31.4167 85.9858 30.45C85.9858 29.4833 85.7858 28.625 85.3858 27.875C85.0025 27.125 84.4692 26.5333 83.7858 26.1C83.1025 25.6667 82.3275 25.45 81.4608 25.45C80.5775 25.45 79.7942 25.6667 79.1108 26.1C78.4442 26.5333 77.9108 27.125 77.5108 27.875C77.1275 28.625 76.9358 29.4833 76.9358 30.45C76.9358 31.4 77.1275 32.2583 77.5108 33.025C77.8942 33.775 78.4275 34.3667 79.1108 34.8C79.7942 35.2333 80.5775 35.45 81.4608 35.45ZM91.4888 37V18.5H93.3638V37H91.4888ZM102.56 37.25C101.26 37.25 100.102 36.9667 99.0849 36.4C98.0849 35.8333 97.3015 35.0417 96.7349 34.025C96.1682 33.0083 95.8849 31.8417 95.8849 30.525C95.8849 29.5083 96.0432 28.5917 96.3599 27.775C96.6765 26.9417 97.1182 26.2167 97.6849 25.6C98.2682 24.9833 98.9599 24.5083 99.7599 24.175C100.56 23.825 101.427 23.65 102.36 23.65C103.243 23.65 104.043 23.8083 104.76 24.125C105.493 24.4417 106.118 24.8833 106.635 25.45C107.168 26 107.568 26.6583 107.835 27.425C108.102 28.1917 108.218 29.0333 108.185 29.95L108.16 30.825H97.2849L97.0099 29.25H106.735L106.285 29.675V29.075C106.252 28.475 106.077 27.9 105.76 27.35C105.443 26.7833 104.993 26.325 104.41 25.975C103.843 25.625 103.16 25.45 102.36 25.45C101.427 25.45 100.618 25.6417 99.9349 26.025C99.2515 26.3917 98.7265 26.9417 98.3599 27.675C97.9932 28.4083 97.8099 29.3167 97.8099 30.4C97.8099 31.4333 98.0099 32.3333 98.4099 33.1C98.8099 33.85 99.3765 34.4333 100.11 34.85C100.86 35.2667 101.76 35.475 102.81 35.475C103.427 35.475 104.035 35.375 104.635 35.175C105.252 34.9583 105.927 34.5417 106.66 33.925L107.635 35.275C107.252 35.6583 106.793 36 106.26 36.3C105.727 36.5833 105.143 36.8167 104.51 37C103.877 37.1667 103.227 37.25 102.56 37.25ZM110.848 37V23.95H112.698L112.773 26.675L112.473 26.8C112.64 26.2333 112.965 25.7167 113.448 25.25C113.931 24.7833 114.506 24.4083 115.173 24.125C115.856 23.825 116.556 23.675 117.273 23.675C118.24 23.675 119.048 23.8667 119.698 24.25C120.348 24.6333 120.84 25.225 121.173 26.025C121.506 26.825 121.673 27.8417 121.673 29.075V37H119.773V29.175C119.773 28.3083 119.656 27.6 119.423 27.05C119.206 26.4833 118.865 26.0667 118.398 25.8C117.931 25.5333 117.356 25.4083 116.673 25.425C116.106 25.425 115.581 25.525 115.098 25.725C114.615 25.9083 114.198 26.1667 113.848 26.5C113.498 26.8333 113.223 27.2167 113.023 27.65C112.823 28.0833 112.723 28.55 112.723 29.05V37H111.798C111.681 37 111.548 37 111.398 37C111.248 37 111.065 37 110.848 37ZM130.552 37.25C129.369 37.25 128.302 36.9583 127.352 36.375C126.419 35.7917 125.677 34.9917 125.127 33.975C124.594 32.9417 124.327 31.775 124.327 30.475C124.327 29.1583 124.602 27.9917 125.152 26.975C125.702 25.9417 126.444 25.1333 127.377 24.55C128.311 23.9667 129.361 23.675 130.527 23.675C131.177 23.675 131.802 23.775 132.402 23.975C133.019 24.175 133.569 24.4583 134.052 24.825C134.536 25.175 134.936 25.5833 135.252 26.05C135.569 26.5 135.761 26.975 135.827 27.475L135.252 27.275V18.5H137.127V37H135.277L135.227 33.75L135.702 33.575C135.636 34.0417 135.444 34.5 135.127 34.95C134.827 35.3833 134.444 35.775 133.977 36.125C133.511 36.475 132.977 36.75 132.377 36.95C131.794 37.15 131.186 37.25 130.552 37.25ZM130.827 35.525C131.694 35.525 132.469 35.3083 133.152 34.875C133.836 34.4417 134.369 33.8417 134.752 33.075C135.152 32.3083 135.352 31.4333 135.352 30.45C135.352 29.4667 135.152 28.6 134.752 27.85C134.369 27.0833 133.836 26.4833 133.152 26.05C132.469 25.6 131.694 25.375 130.827 25.375C129.927 25.375 129.136 25.6 128.452 26.05C127.786 26.4833 127.252 27.0833 126.852 27.85C126.469 28.6 126.277 29.4667 126.277 30.45C126.277 31.4167 126.469 32.2833 126.852 33.05C127.236 33.8167 127.769 34.425 128.452 34.875C129.136 35.3083 129.927 35.525 130.827 35.525ZM145.88 37.25C144.746 37.25 143.721 36.9583 142.805 36.375C141.888 35.775 141.163 34.9667 140.63 33.95C140.096 32.9167 139.83 31.75 139.83 30.45C139.83 29.1333 140.105 27.9667 140.655 26.95C141.205 25.9333 141.938 25.1333 142.855 24.55C143.788 23.9667 144.83 23.675 145.98 23.675C146.663 23.675 147.296 23.775 147.88 23.975C148.463 24.175 148.98 24.4583 149.43 24.825C149.896 25.175 150.28 25.5917 150.58 26.075C150.896 26.5417 151.113 27.05 151.23 27.6L150.68 27.325L150.755 23.95H152.63V37H150.73V33.8L151.23 33.475C151.113 33.975 150.888 34.4583 150.555 34.925C150.221 35.375 149.813 35.775 149.33 36.125C148.863 36.475 148.33 36.75 147.73 36.95C147.146 37.15 146.53 37.25 145.88 37.25ZM146.305 35.45C147.171 35.45 147.946 35.2417 148.63 34.825C149.313 34.3917 149.846 33.8 150.23 33.05C150.63 32.2833 150.83 31.4167 150.83 30.45C150.83 29.4833 150.63 28.625 150.23 27.875C149.846 27.125 149.313 26.5333 148.63 26.1C147.946 25.6667 147.171 25.45 146.305 25.45C145.421 25.45 144.638 25.6667 143.955 26.1C143.288 26.5333 142.755 27.125 142.355 27.875C141.971 28.625 141.78 29.4833 141.78 30.45C141.78 31.4 141.971 32.2583 142.355 33.025C142.738 33.775 143.271 34.3667 143.955 34.8C144.638 35.2333 145.421 35.45 146.305 35.45ZM156.283 37V23.95H158.158L158.208 27.425L158.008 26.95C158.191 26.3667 158.483 25.825 158.883 25.325C159.299 24.825 159.791 24.425 160.358 24.125C160.924 23.825 161.549 23.675 162.233 23.675C162.516 23.675 162.783 23.7 163.033 23.75C163.283 23.7833 163.491 23.8333 163.658 23.9L163.133 26C162.916 25.9 162.691 25.8333 162.458 25.8C162.241 25.75 162.033 25.725 161.833 25.725C161.266 25.725 160.758 25.825 160.308 26.025C159.858 26.225 159.474 26.5083 159.158 26.875C158.841 27.225 158.599 27.6333 158.433 28.1C158.266 28.5667 158.183 29.0667 158.183 29.6V37H156.283Z" fill="#F16A64"/>
</svg>
