<svg width="201" height="55" viewBox="0 0 201 55" fill="none" xmlns="http://www.w3.org/2000/svg">
<path d="M3 29.6778C1.66666 28.908 1.66667 26.9835 3 26.2137L19.4186 16.7344C20.7519 15.9646 22.4186 16.9269 22.4186 18.4665L22.4186 37.425C22.4186 38.9646 20.7519 39.9269 19.4186 39.1571L3 29.6778Z" fill="#F8E2D6"/>
<rect x="20" width="181" height="55" rx="15" fill="#F8E2D6"/>
<path d="M47.6209 37V19.5H54.2209C55.4209 19.5 56.5126 19.7167 57.4959 20.15C58.4959 20.5667 59.3626 21.1667 60.0959 21.95C60.8292 22.7333 61.3959 23.6583 61.7959 24.725C62.1959 25.7917 62.3959 26.9667 62.3959 28.25C62.3959 29.5333 62.1959 30.7167 61.7959 31.8C61.3959 32.8667 60.8292 33.7917 60.0959 34.575C59.3792 35.3417 58.5209 35.9417 57.5209 36.375C56.5209 36.7917 55.4209 37 54.2209 37H47.6209ZM49.5709 35.45L49.3459 35.1H54.0959C55.0126 35.1 55.8542 34.9417 56.6209 34.625C57.4042 34.2917 58.0709 33.825 58.6209 33.225C59.1876 32.6083 59.6209 31.8833 59.9209 31.05C60.2376 30.2167 60.3959 29.2833 60.3959 28.25C60.3959 27.2167 60.2376 26.2833 59.9209 25.45C59.6209 24.6167 59.1876 23.9 58.6209 23.3C58.0542 22.6833 57.3876 22.2167 56.6209 21.9C55.8542 21.5667 55.0126 21.4 54.0959 21.4H49.2709L49.5709 21.1V35.45ZM70.55 37.25C69.4167 37.25 68.3917 36.9583 67.475 36.375C66.5583 35.775 65.8333 34.9667 65.3 33.95C64.7667 32.9167 64.5 31.75 64.5 30.45C64.5 29.1333 64.775 27.9667 65.325 26.95C65.875 25.9333 66.6083 25.1333 67.525 24.55C68.4583 23.9667 69.5 23.675 70.65 23.675C71.3333 23.675 71.9667 23.775 72.55 23.975C73.1333 24.175 73.65 24.4583 74.1 24.825C74.5667 25.175 74.95 25.5917 75.25 26.075C75.5667 26.5417 75.7833 27.05 75.9 27.6L75.35 27.325L75.425 23.95H77.3V37H75.4V33.8L75.9 33.475C75.7833 33.975 75.5583 34.4583 75.225 34.925C74.8917 35.375 74.4833 35.775 74 36.125C73.5333 36.475 73 36.75 72.4 36.95C71.8167 37.15 71.2 37.25 70.55 37.25ZM70.975 35.45C71.8417 35.45 72.6167 35.2417 73.3 34.825C73.9833 34.3917 74.5167 33.8 74.9 33.05C75.3 32.2833 75.5 31.4167 75.5 30.45C75.5 29.4833 75.3 28.625 74.9 27.875C74.5167 27.125 73.9833 26.5333 73.3 26.1C72.6167 25.6667 71.8417 25.45 70.975 25.45C70.0917 25.45 69.3083 25.6667 68.625 26.1C67.9583 26.5333 67.425 27.125 67.025 27.875C66.6417 28.625 66.45 29.4833 66.45 30.45C66.45 31.4 66.6417 32.2583 67.025 33.025C67.4083 33.775 67.9417 34.3667 68.625 34.8C69.3083 35.2333 70.0917 35.45 70.975 35.45ZM85.2279 37.25C84.1113 37.25 83.1113 37.0417 82.2279 36.625C81.3446 36.2083 80.6446 35.6583 80.1279 34.975L81.4529 33.825C81.9363 34.4083 82.5029 34.85 83.1529 35.15C83.8196 35.45 84.5613 35.6 85.3779 35.6C85.7946 35.6 86.1696 35.5583 86.5029 35.475C86.8363 35.375 87.1279 35.2333 87.3779 35.05C87.6279 34.8667 87.8196 34.65 87.9529 34.4C88.0863 34.15 88.1529 33.875 88.1529 33.575C88.1529 33.025 87.9113 32.5667 87.4279 32.2C87.2113 32.05 86.9029 31.9 86.5029 31.75C86.1029 31.5833 85.6196 31.425 85.0529 31.275C84.1196 31.0083 83.3446 30.7417 82.7279 30.475C82.1113 30.1917 81.6279 29.8667 81.2779 29.5C81.0279 29.2 80.8363 28.875 80.7029 28.525C80.5863 28.175 80.5279 27.7917 80.5279 27.375C80.5279 26.8417 80.6363 26.35 80.8529 25.9C81.0863 25.45 81.4029 25.0583 81.8029 24.725C82.2196 24.375 82.7029 24.1167 83.2529 23.95C83.8196 23.7667 84.4279 23.675 85.0779 23.675C85.6946 23.675 86.3029 23.7583 86.9029 23.925C87.5029 24.0917 88.0613 24.3333 88.5779 24.65C89.0946 24.9667 89.5363 25.3417 89.9029 25.775L88.7529 27.025C88.4363 26.6917 88.0863 26.3917 87.7029 26.125C87.3196 25.8583 86.9113 25.65 86.4779 25.5C86.0613 25.35 85.6279 25.275 85.1779 25.275C84.7779 25.275 84.4029 25.325 84.0529 25.425C83.7196 25.525 83.4279 25.6667 83.1779 25.85C82.9446 26.0167 82.7613 26.225 82.6279 26.475C82.5113 26.725 82.4529 27 82.4529 27.3C82.4529 27.55 82.5029 27.775 82.6029 27.975C82.7029 28.175 82.8446 28.35 83.0279 28.5C83.2613 28.6833 83.5863 28.8583 84.0029 29.025C84.4363 29.175 84.9696 29.3333 85.6029 29.5C86.3363 29.7 86.9529 29.9083 87.4529 30.125C87.9696 30.325 88.3946 30.5667 88.7279 30.85C89.1779 31.1833 89.4946 31.5667 89.6779 32C89.8779 32.4333 89.9779 32.925 89.9779 33.475C89.9779 34.2083 89.7696 34.8583 89.3529 35.425C88.9529 35.9917 88.3946 36.4417 87.6779 36.775C86.9613 37.0917 86.1446 37.25 85.2279 37.25ZM92.9158 37V18.5H94.7908V26.8L94.4158 27.175C94.5992 26.4917 94.9408 25.8917 95.4408 25.375C95.9408 24.8417 96.5242 24.425 97.1908 24.125C97.8742 23.825 98.5658 23.675 99.2658 23.675C100.266 23.675 101.099 23.8667 101.766 24.25C102.432 24.6333 102.924 25.225 103.241 26.025C103.574 26.825 103.741 27.8417 103.741 29.075V37H101.841V29.175C101.841 28.3083 101.724 27.6 101.491 27.05C101.274 26.4833 100.932 26.0667 100.466 25.8C99.9992 25.5333 99.4158 25.4083 98.7158 25.425C98.1658 25.425 97.6492 25.525 97.1658 25.725C96.6825 25.9083 96.2658 26.1667 95.9158 26.5C95.5658 26.8333 95.2908 27.2167 95.0908 27.65C94.8908 28.0833 94.7908 28.55 94.7908 29.05V37H93.8658C93.7492 37 93.6158 37 93.4658 37C93.3158 37 93.1325 37 92.9158 37ZM113.945 37.25C113.328 37.25 112.728 37.1583 112.145 36.975C111.562 36.775 111.028 36.5083 110.545 36.175C110.078 35.8417 109.678 35.4583 109.345 35.025C109.028 34.5917 108.812 34.1417 108.695 33.675L109.245 33.7L109.17 36.975H107.32V18.5H109.195V27.075L108.82 27.175C108.937 26.7083 109.145 26.2667 109.445 25.85C109.762 25.4167 110.153 25.0417 110.62 24.725C111.087 24.3917 111.595 24.1333 112.145 23.95C112.712 23.7667 113.295 23.675 113.895 23.675C115.062 23.675 116.103 23.9667 117.02 24.55C117.953 25.1333 118.695 25.9333 119.245 26.95C119.795 27.9667 120.07 29.1333 120.07 30.45C120.07 31.7667 119.803 32.9417 119.27 33.975C118.737 34.9917 118.003 35.7917 117.07 36.375C116.153 36.9583 115.112 37.25 113.945 37.25ZM113.645 35.475C114.528 35.475 115.312 35.2583 115.995 34.825C116.678 34.375 117.212 33.775 117.595 33.025C117.995 32.2583 118.195 31.4 118.195 30.45C118.195 29.4833 117.995 28.625 117.595 27.875C117.212 27.125 116.678 26.5333 115.995 26.1C115.312 25.6667 114.528 25.45 113.645 25.45C112.762 25.45 111.978 25.6667 111.295 26.1C110.612 26.5333 110.07 27.125 109.67 27.875C109.287 28.625 109.095 29.4833 109.095 30.45C109.095 31.4167 109.287 32.2833 109.67 33.05C110.07 33.8 110.612 34.3917 111.295 34.825C111.978 35.2583 112.762 35.475 113.645 35.475ZM128.574 37.25C127.274 37.25 126.115 36.9583 125.099 36.375C124.099 35.7917 123.307 34.9833 122.724 33.95C122.157 32.9167 121.874 31.7417 121.874 30.425C121.874 29.125 122.157 27.9667 122.724 26.95C123.307 25.9333 124.099 25.1333 125.099 24.55C126.115 23.9667 127.274 23.675 128.574 23.675C129.857 23.675 130.999 23.9667 131.999 24.55C133.015 25.1333 133.807 25.9333 134.374 26.95C134.957 27.9667 135.249 29.125 135.249 30.425C135.249 31.7417 134.957 32.9167 134.374 33.95C133.807 34.9833 133.015 35.7917 131.999 36.375C130.999 36.9583 129.857 37.25 128.574 37.25ZM128.574 35.475C129.49 35.475 130.307 35.2583 131.024 34.825C131.74 34.375 132.299 33.775 132.699 33.025C133.099 32.2583 133.299 31.3917 133.299 30.425C133.299 29.4583 133.099 28.6 132.699 27.85C132.299 27.1 131.74 26.5167 131.024 26.1C130.307 25.6667 129.49 25.45 128.574 25.45C127.657 25.45 126.832 25.6667 126.099 26.1C125.382 26.5167 124.815 27.1083 124.399 27.875C123.999 28.625 123.807 29.475 123.824 30.425C123.807 31.3917 123.999 32.2583 124.399 33.025C124.815 33.775 125.382 34.375 126.099 34.825C126.832 35.2583 127.657 35.475 128.574 35.475ZM143.084 37.25C141.951 37.25 140.926 36.9583 140.009 36.375C139.093 35.775 138.368 34.9667 137.834 33.95C137.301 32.9167 137.034 31.75 137.034 30.45C137.034 29.1333 137.309 27.9667 137.859 26.95C138.409 25.9333 139.143 25.1333 140.059 24.55C140.993 23.9667 142.034 23.675 143.184 23.675C143.868 23.675 144.501 23.775 145.084 23.975C145.668 24.175 146.184 24.4583 146.634 24.825C147.101 25.175 147.484 25.5917 147.784 26.075C148.101 26.5417 148.318 27.05 148.434 27.6L147.884 27.325L147.959 23.95H149.834V37H147.934V33.8L148.434 33.475C148.318 33.975 148.093 34.4583 147.759 34.925C147.426 35.375 147.018 35.775 146.534 36.125C146.068 36.475 145.534 36.75 144.934 36.95C144.351 37.15 143.734 37.25 143.084 37.25ZM143.509 35.45C144.376 35.45 145.151 35.2417 145.834 34.825C146.518 34.3917 147.051 33.8 147.434 33.05C147.834 32.2833 148.034 31.4167 148.034 30.45C148.034 29.4833 147.834 28.625 147.434 27.875C147.051 27.125 146.518 26.5333 145.834 26.1C145.151 25.6667 144.376 25.45 143.509 25.45C142.626 25.45 141.843 25.6667 141.159 26.1C140.493 26.5333 139.959 27.125 139.559 27.875C139.176 28.625 138.984 29.4833 138.984 30.45C138.984 31.4 139.176 32.2583 139.559 33.025C139.943 33.775 140.476 34.3667 141.159 34.8C141.843 35.2333 142.626 35.45 143.509 35.45ZM153.487 37V23.95H155.362L155.412 27.425L155.212 26.95C155.395 26.3667 155.687 25.825 156.087 25.325C156.504 24.825 156.995 24.425 157.562 24.125C158.129 23.825 158.754 23.675 159.437 23.675C159.72 23.675 159.987 23.7 160.237 23.75C160.487 23.7833 160.695 23.8333 160.862 23.9L160.337 26C160.12 25.9 159.895 25.8333 159.662 25.8C159.445 25.75 159.237 25.725 159.037 25.725C158.47 25.725 157.962 25.825 157.512 26.025C157.062 26.225 156.679 26.5083 156.362 26.875C156.045 27.225 155.804 27.6333 155.637 28.1C155.47 28.5667 155.387 29.0667 155.387 29.6V37H153.487ZM167.552 37.25C166.368 37.25 165.302 36.9583 164.352 36.375C163.418 35.7917 162.677 34.9917 162.127 33.975C161.593 32.9417 161.327 31.775 161.327 30.475C161.327 29.1583 161.602 27.9917 162.152 26.975C162.702 25.9417 163.443 25.1333 164.377 24.55C165.31 23.9667 166.36 23.675 167.527 23.675C168.177 23.675 168.802 23.775 169.402 23.975C170.018 24.175 170.568 24.4583 171.052 24.825C171.535 25.175 171.935 25.5833 172.252 26.05C172.568 26.5 172.76 26.975 172.827 27.475L172.252 27.275V18.5H174.127V37H172.277L172.227 33.75L172.702 33.575C172.635 34.0417 172.443 34.5 172.127 34.95C171.827 35.3833 171.443 35.775 170.977 36.125C170.51 36.475 169.977 36.75 169.377 36.95C168.793 37.15 168.185 37.25 167.552 37.25ZM167.827 35.525C168.693 35.525 169.468 35.3083 170.152 34.875C170.835 34.4417 171.368 33.8417 171.752 33.075C172.152 32.3083 172.352 31.4333 172.352 30.45C172.352 29.4667 172.152 28.6 171.752 27.85C171.368 27.0833 170.835 26.4833 170.152 26.05C169.468 25.6 168.693 25.375 167.827 25.375C166.927 25.375 166.135 25.6 165.452 26.05C164.785 26.4833 164.252 27.0833 163.852 27.85C163.468 28.6 163.277 29.4667 163.277 30.45C163.277 31.4167 163.468 32.2833 163.852 33.05C164.235 33.8167 164.768 34.425 165.452 34.875C166.135 35.3083 166.927 35.525 167.827 35.525Z" fill="#F16A64"/>
</svg>
