<svg width="201" height="55" viewBox="0 0 201 55" fill="none" xmlns="http://www.w3.org/2000/svg">
<path d="M3 29.6778C1.66666 28.908 1.66667 26.9835 3 26.2137L19.4186 16.7344C20.7519 15.9646 22.4186 16.9269 22.4186 18.4665L22.4186 37.425C22.4186 38.9646 20.7519 39.9269 19.4186 39.1571L3 29.6778Z" fill="#F8E2D6"/>
<rect x="20" width="181" height="55" rx="15" fill="#F8E2D6"/>
<path d="M89.3746 37V19.5H91.3246V37H89.3746ZM77.6746 37V19.5H79.6246V37H77.6746ZM78.6246 29.225V27.325H90.1996V29.225H78.6246ZM101.498 37.25C100.198 37.25 99.0401 36.9583 98.0234 36.375C97.0234 35.7917 96.2318 34.9833 95.6484 33.95C95.0818 32.9167 94.7984 31.7417 94.7984 30.425C94.7984 29.125 95.0818 27.9667 95.6484 26.95C96.2318 25.9333 97.0234 25.1333 98.0234 24.55C99.0401 23.9667 100.198 23.675 101.498 23.675C102.782 23.675 103.923 23.9667 104.923 24.55C105.94 25.1333 106.732 25.9333 107.298 26.95C107.882 27.9667 108.173 29.125 108.173 30.425C108.173 31.7417 107.882 32.9167 107.298 33.95C106.732 34.9833 105.94 35.7917 104.923 36.375C103.923 36.9583 102.782 37.25 101.498 37.25ZM101.498 35.475C102.415 35.475 103.232 35.2583 103.948 34.825C104.665 34.375 105.223 33.775 105.623 33.025C106.023 32.2583 106.223 31.3917 106.223 30.425C106.223 29.4583 106.023 28.6 105.623 27.85C105.223 27.1 104.665 26.5167 103.948 26.1C103.232 25.6667 102.415 25.45 101.498 25.45C100.582 25.45 99.7568 25.6667 99.0234 26.1C98.3068 26.5167 97.7401 27.1083 97.3234 27.875C96.9234 28.625 96.7318 29.475 96.7484 30.425C96.7318 31.3917 96.9234 32.2583 97.3234 33.025C97.7401 33.775 98.3068 34.375 99.0234 34.825C99.7568 35.2583 100.582 35.475 101.498 35.475ZM110.884 37V23.95H112.759L112.809 26.925L112.434 27.05C112.567 26.55 112.784 26.1 113.084 25.7C113.401 25.2833 113.776 24.925 114.209 24.625C114.642 24.325 115.117 24.1 115.634 23.95C116.151 23.7833 116.692 23.7 117.259 23.7C117.942 23.7 118.551 23.8167 119.084 24.05C119.634 24.2667 120.092 24.65 120.459 25.2C120.842 25.7333 121.134 26.4417 121.334 27.325L120.884 27.1L121.059 26.675C121.226 26.2917 121.467 25.925 121.784 25.575C122.117 25.2083 122.492 24.8833 122.909 24.6C123.342 24.3167 123.809 24.1 124.309 23.95C124.826 23.7833 125.351 23.7 125.884 23.7C126.801 23.7 127.576 23.9 128.209 24.3C128.842 24.6833 129.317 25.275 129.634 26.075C129.967 26.875 130.134 27.8917 130.134 29.125V37H128.209V29.225C128.209 28.3583 128.101 27.65 127.884 27.1C127.667 26.55 127.342 26.1417 126.909 25.875C126.492 25.5917 125.959 25.45 125.309 25.45C124.742 25.45 124.217 25.55 123.734 25.75C123.267 25.9333 122.859 26.2 122.509 26.55C122.176 26.8833 121.909 27.2667 121.709 27.7C121.526 28.1333 121.434 28.6 121.434 29.1V37H119.534V29.2C119.534 28.3667 119.417 27.675 119.184 27.125C118.967 26.575 118.642 26.1583 118.209 25.875C117.776 25.5917 117.242 25.45 116.609 25.45C116.059 25.45 115.551 25.55 115.084 25.75C114.617 25.9333 114.209 26.1917 113.859 26.525C113.526 26.8583 113.259 27.2417 113.059 27.675C112.876 28.1083 112.784 28.575 112.784 29.075V37H110.884ZM139.437 37.25C138.137 37.25 136.979 36.9667 135.962 36.4C134.962 35.8333 134.179 35.0417 133.612 34.025C133.046 33.0083 132.762 31.8417 132.762 30.525C132.762 29.5083 132.921 28.5917 133.237 27.775C133.554 26.9417 133.996 26.2167 134.562 25.6C135.146 24.9833 135.837 24.5083 136.637 24.175C137.437 23.825 138.304 23.65 139.237 23.65C140.121 23.65 140.921 23.8083 141.637 24.125C142.371 24.4417 142.996 24.8833 143.512 25.45C144.046 26 144.446 26.6583 144.712 27.425C144.979 28.1917 145.096 29.0333 145.062 29.95L145.037 30.825H134.162L133.887 29.25H143.612L143.162 29.675V29.075C143.129 28.475 142.954 27.9 142.637 27.35C142.321 26.7833 141.871 26.325 141.287 25.975C140.721 25.625 140.037 25.45 139.237 25.45C138.304 25.45 137.496 25.6417 136.812 26.025C136.129 26.3917 135.604 26.9417 135.237 27.675C134.871 28.4083 134.687 29.3167 134.687 30.4C134.687 31.4333 134.887 32.3333 135.287 33.1C135.687 33.85 136.254 34.4333 136.987 34.85C137.737 35.2667 138.637 35.475 139.687 35.475C140.304 35.475 140.912 35.375 141.512 35.175C142.129 34.9583 142.804 34.5417 143.537 33.925L144.512 35.275C144.129 35.6583 143.671 36 143.137 36.3C142.604 36.5833 142.021 36.8167 141.387 37C140.754 37.1667 140.104 37.25 139.437 37.25Z" fill="#F16A64"/>
</svg>
