<svg width="201" height="55" viewBox="0 0 201 55" fill="none" xmlns="http://www.w3.org/2000/svg">
<path d="M3 29.6778C1.66666 28.908 1.66667 26.9835 3 26.2137L19.4186 16.7344C20.7519 15.9646 22.4186 16.9269 22.4186 18.4665L22.4186 37.425C22.4186 38.9646 20.7519 39.9269 19.4186 39.1571L3 29.6778Z" fill="#F8E2D6"/>
<rect x="20" width="181" height="55" rx="15" fill="#F8E2D6"/>
<path d="M81.1252 39.575L74.7252 31.15L76.3002 30.1L82.6752 38.45L81.1252 39.575ZM75.0002 37.25C73.7669 37.25 72.6252 37.0333 71.5752 36.6C70.5419 36.15 69.6335 35.525 68.8502 34.725C68.0835 33.925 67.4835 32.9833 67.0502 31.9C66.6335 30.8 66.4252 29.6 66.4252 28.3C66.4252 27 66.6335 25.8083 67.0502 24.725C67.4835 23.625 68.0835 22.675 68.8502 21.875C69.6335 21.0583 70.5419 20.4333 71.5752 20C72.6252 19.55 73.7669 19.325 75.0002 19.325C76.2502 19.325 77.3919 19.55 78.4252 20C79.4752 20.4333 80.3835 21.0583 81.1502 21.875C81.9335 22.675 82.5335 23.625 82.9502 24.725C83.3835 25.8083 83.6002 27 83.6002 28.3C83.6002 29.5833 83.3835 30.775 82.9502 31.875C82.5335 32.9583 81.9335 33.9083 81.1502 34.725C80.3835 35.525 79.4752 36.15 78.4252 36.6C77.3919 37.0333 76.2502 37.25 75.0002 37.25ZM75.0002 35.325C75.9502 35.325 76.8252 35.1583 77.6252 34.825C78.4419 34.475 79.1419 33.9833 79.7252 33.35C80.3085 32.7167 80.7585 31.975 81.0752 31.125C81.4085 30.2583 81.5752 29.3167 81.5752 28.3C81.5752 27.2667 81.4085 26.325 81.0752 25.475C80.7585 24.6083 80.3085 23.8583 79.7252 23.225C79.1419 22.5917 78.4419 22.1 77.6252 21.75C76.8252 21.4 75.9502 21.225 75.0002 21.225C74.0502 21.225 73.1669 21.4 72.3502 21.75C71.5502 22.1 70.8585 22.5917 70.2752 23.225C69.6919 23.8583 69.2419 24.6083 68.9252 25.475C68.6085 26.325 68.4502 27.2667 68.4502 28.3C68.4502 29.3167 68.6085 30.2583 68.9252 31.125C69.2419 31.975 69.6919 32.7167 70.2752 33.35C70.8585 33.9833 71.5502 34.475 72.3502 34.825C73.1669 35.1583 74.0502 35.325 75.0002 35.325ZM91.2791 37.25C90.2791 37.25 89.4291 37.05 88.7291 36.65C88.0458 36.2333 87.5208 35.6333 87.1541 34.85C86.8041 34.0667 86.6291 33.0917 86.6291 31.925V23.95H88.5291V31.55C88.5291 32.4333 88.6458 33.175 88.8791 33.775C89.1291 34.3583 89.4958 34.8 89.9791 35.1C90.4791 35.4 91.0874 35.55 91.8041 35.55C92.3541 35.55 92.8624 35.4583 93.3291 35.275C93.7958 35.075 94.2041 34.8083 94.5541 34.475C94.9041 34.1417 95.1791 33.75 95.3791 33.3C95.5791 32.85 95.6791 32.375 95.6791 31.875V23.95H97.5541V37H95.7041L95.6291 34.25L95.9291 34.1C95.7291 34.6833 95.3958 35.2167 94.9291 35.7C94.4624 36.1667 93.9041 36.5417 93.2541 36.825C92.6208 37.1083 91.9624 37.25 91.2791 37.25ZM101.705 37V23.95H103.58V37H101.705ZM102.63 21.125C102.163 21.125 101.805 21.0083 101.555 20.775C101.322 20.525 101.205 20.1917 101.205 19.775C101.205 19.3583 101.33 19.025 101.58 18.775C101.83 18.525 102.18 18.4 102.63 18.4C103.08 18.4 103.43 18.525 103.68 18.775C103.93 19.0083 104.055 19.3417 104.055 19.775C104.055 20.175 103.93 20.5 103.68 20.75C103.43 21 103.08 21.125 102.63 21.125ZM106.95 37V35.375L114.15 25.225L114.375 25.625H106.95V23.95H116.125V25.55L108.95 35.675L108.7 35.3H116.4V37H106.95ZM118.546 37V35.375L125.746 25.225L125.971 25.625H118.546V23.95H127.721V25.55L120.546 35.675L120.296 35.3H127.996V37H118.546ZM136.374 37.25C135.074 37.25 133.915 36.9667 132.899 36.4C131.899 35.8333 131.115 35.0417 130.549 34.025C129.982 33.0083 129.699 31.8417 129.699 30.525C129.699 29.5083 129.857 28.5917 130.174 27.775C130.49 26.9417 130.932 26.2167 131.499 25.6C132.082 24.9833 132.774 24.5083 133.574 24.175C134.374 23.825 135.24 23.65 136.174 23.65C137.057 23.65 137.857 23.8083 138.574 24.125C139.307 24.4417 139.932 24.8833 140.449 25.45C140.982 26 141.382 26.6583 141.649 27.425C141.915 28.1917 142.032 29.0333 141.999 29.95L141.974 30.825H131.099L130.824 29.25H140.549L140.099 29.675V29.075C140.065 28.475 139.89 27.9 139.574 27.35C139.257 26.7833 138.807 26.325 138.224 25.975C137.657 25.625 136.974 25.45 136.174 25.45C135.24 25.45 134.432 25.6417 133.749 26.025C133.065 26.3917 132.54 26.9417 132.174 27.675C131.807 28.4083 131.624 29.3167 131.624 30.4C131.624 31.4333 131.824 32.3333 132.224 33.1C132.624 33.85 133.19 34.4333 133.924 34.85C134.674 35.2667 135.574 35.475 136.624 35.475C137.24 35.475 137.849 35.375 138.449 35.175C139.065 34.9583 139.74 34.5417 140.474 33.925L141.449 35.275C141.065 35.6583 140.607 36 140.074 36.3C139.54 36.5833 138.957 36.8167 138.324 37C137.69 37.1667 137.04 37.25 136.374 37.25ZM148.937 37.25C147.82 37.25 146.82 37.0417 145.937 36.625C145.054 36.2083 144.354 35.6583 143.837 34.975L145.162 33.825C145.645 34.4083 146.212 34.85 146.862 35.15C147.529 35.45 148.27 35.6 149.087 35.6C149.504 35.6 149.879 35.5583 150.212 35.475C150.545 35.375 150.837 35.2333 151.087 35.05C151.337 34.8667 151.529 34.65 151.662 34.4C151.795 34.15 151.862 33.875 151.862 33.575C151.862 33.025 151.62 32.5667 151.137 32.2C150.92 32.05 150.612 31.9 150.212 31.75C149.812 31.5833 149.329 31.425 148.762 31.275C147.829 31.0083 147.054 30.7417 146.437 30.475C145.82 30.1917 145.337 29.8667 144.987 29.5C144.737 29.2 144.545 28.875 144.412 28.525C144.295 28.175 144.237 27.7917 144.237 27.375C144.237 26.8417 144.345 26.35 144.562 25.9C144.795 25.45 145.112 25.0583 145.512 24.725C145.929 24.375 146.412 24.1167 146.962 23.95C147.529 23.7667 148.137 23.675 148.787 23.675C149.404 23.675 150.012 23.7583 150.612 23.925C151.212 24.0917 151.77 24.3333 152.287 24.65C152.804 24.9667 153.245 25.3417 153.612 25.775L152.462 27.025C152.145 26.6917 151.795 26.3917 151.412 26.125C151.029 25.8583 150.62 25.65 150.187 25.5C149.77 25.35 149.337 25.275 148.887 25.275C148.487 25.275 148.112 25.325 147.762 25.425C147.429 25.525 147.137 25.6667 146.887 25.85C146.654 26.0167 146.47 26.225 146.337 26.475C146.22 26.725 146.162 27 146.162 27.3C146.162 27.55 146.212 27.775 146.312 27.975C146.412 28.175 146.554 28.35 146.737 28.5C146.97 28.6833 147.295 28.8583 147.712 29.025C148.145 29.175 148.679 29.3333 149.312 29.5C150.045 29.7 150.662 29.9083 151.162 30.125C151.679 30.325 152.104 30.5667 152.437 30.85C152.887 31.1833 153.204 31.5667 153.387 32C153.587 32.4333 153.687 32.925 153.687 33.475C153.687 34.2083 153.479 34.8583 153.062 35.425C152.662 35.9917 152.104 36.4417 151.387 36.775C150.67 37.0917 149.854 37.25 148.937 37.25Z" fill="#F16A64"/>
</svg>
